solid inlet
facet normal 0.000000 -1.000000 -0.000001
outer loop
vertex 0.005100 -0.294237 -0.107067
vertex 0.005256 -0.294237 -0.007766
vertex 0.003341 -0.294237 -0.007577
endloop
endfacet
facet normal 0.000000 -1.000000 0.000000
outer loop
vertex 0.005100 -0.294237 -0.107067
vertex 0.003341 -0.294237 -0.007577
vertex 0.003024 -0.294237 -0.107272
endloop
endfacet
facet normal 0.000000 -1.000000 0.000000
outer loop
vertex 0.000000 -0.294237 -0.007569
vertex -0.000000 -0.294237 -0.107248
vertex 0.001631 -0.294237 -0.107409
endloop
endfacet
facet normal 0.000000 -1.000000 0.000000
outer loop
vertex 0.001631 -0.294237 -0.107409
vertex 0.002575 -0.294237 -0.107316
vertex 0.003196 -0.294237 -0.007563
endloop
endfacet
facet normal 0.000000 -1.000000 0.000000
outer loop
vertex 0.003196 -0.294237 -0.007563
vertex 0.001631 -0.294237 -0.007409
vertex 0.000000 -0.294237 -0.007569
endloop
endfacet
facet normal 0.000000 -1.000000 0.000000
outer loop
vertex 0.001631 -0.294237 -0.107409
vertex 0.003196 -0.294237 -0.007563
vertex 0.000000 -0.294237 -0.007569
endloop
endfacet
facet normal 0.000000 -1.000000 0.000000
outer loop
vertex 0.020766 -0.294237 -0.103603
vertex 0.029410 -0.294237 -0.098982
vertex 0.036987 -0.294237 -0.092764
endloop
endfacet
facet normal 0.000000 -1.000000 0.000000
outer loop
vertex 0.036987 -0.294237 -0.092764
vertex 0.043205 -0.294237 -0.085187
vertex 0.047825 -0.294237 -0.076543
endloop
endfacet
facet normal 0.000000 -1.000000 0.000000
outer loop
vertex 0.047825 -0.294237 -0.076543
vertex 0.050671 -0.294237 -0.067163
vertex 0.051631 -0.294237 -0.057409
endloop
endfacet
facet normal 0.000000 -1.000000 0.000000
outer loop
vertex 0.051631 -0.294237 -0.057409
vertex 0.050671 -0.294237 -0.047654
vertex 0.047825 -0.294237 -0.038275
endloop
endfacet
facet normal 0.000000 -1.000000 0.000012
outer loop
vertex 0.047825 -0.294237 -0.038275
vertex 0.043205 -0.294237 -0.029630
vertex 0.036987 -0.294237 -0.022053
endloop
endfacet
facet normal 0.000000 -1.000000 0.000000
outer loop
vertex 0.036987 -0.294237 -0.022053
vertex 0.029410 -0.294237 -0.015835
vertex 0.020766 -0.294237 -0.011215
endloop
endfacet
facet normal 0.000000 -1.000000 0.000020
outer loop
vertex 0.020766 -0.294237 -0.011215
vertex 0.011386 -0.294237 -0.008370
vertex 0.005325 -0.294237 -0.007773
endloop
endfacet
facet normal 0.000000 -1.000000 0.000000
outer loop
vertex 0.005325 -0.294237 -0.007773
vertex 0.005325 -0.294237 -0.107045
vertex 0.011386 -0.294237 -0.106448
endloop
endfacet
facet normal 0.000000 -1.000000 0.000000
outer loop
vertex 0.011386 -0.294237 -0.106448
vertex 0.020766 -0.294237 -0.103603
vertex 0.036987 -0.294237 -0.092764
endloop
endfacet
facet normal 0.000000 -1.000000 -0.000002
outer loop
vertex 0.036987 -0.294237 -0.092764
vertex 0.047825 -0.294237 -0.076543
vertex 0.051631 -0.294237 -0.057409
endloop
endfacet
facet normal 0.000000 -1.000000 -0.000003
outer loop
vertex 0.051631 -0.294237 -0.057409
vertex 0.047825 -0.294237 -0.038275
vertex 0.036987 -0.294237 -0.022053
endloop
endfacet
facet normal 0.000000 -1.000000 0.000008
outer loop
vertex 0.036987 -0.294237 -0.022053
vertex 0.020766 -0.294237 -0.011215
vertex 0.005325 -0.294237 -0.007773
endloop
endfacet
facet normal 0.000000 -1.000000 -0.000001
outer loop
vertex 0.005325 -0.294237 -0.007773
vertex 0.011386 -0.294237 -0.106448
vertex 0.036987 -0.294237 -0.092764
endloop
endfacet
facet normal 0.000000 -1.000000 0.000000
outer loop
vertex 0.036987 -0.294237 -0.092764
vertex 0.051631 -0.294237 -0.057409
vertex 0.036987 -0.294237 -0.022053
endloop
endfacet
facet normal 0.000000 -1.000000 0.000000
outer loop
vertex 0.036987 -0.294237 -0.092764
vertex 0.036987 -0.294237 -0.022053
vertex 0.005325 -0.294237 -0.007773
endloop
endfacet
endsolid inlet
