solid outlet
facet normal 0.000000 1.000000 0.000000
outer loop
vertex -0.048369 0.299030 -0.949715
vertex -0.047408 0.299030 -0.939961
vertex -0.044563 0.299030 -0.930581
endloop
endfacet
facet normal 0.000000 1.000000 0.000000
outer loop
vertex -0.044563 0.299030 -0.930581
vertex -0.039942 0.299030 -0.921937
vertex -0.033724 0.299030 -0.914360
endloop
endfacet
facet normal 0.000000 1.000000 0.000000
outer loop
vertex -0.033724 0.299030 -0.914360
vertex -0.026147 0.299030 -0.908142
vertex -0.017503 0.299030 -0.903522
endloop
endfacet
facet normal 0.000000 1.000000 0.000000
outer loop
vertex -0.017503 0.299030 -0.903522
vertex -0.008123 0.299030 -0.900676
vertex 0.001631 0.299030 -0.899715
endloop
endfacet
facet normal 0.000000 1.000000 0.000000
outer loop
vertex 0.001631 0.299030 -0.899715
vertex 0.011386 0.299030 -0.900676
vertex 0.020766 0.299030 -0.903522
endloop
endfacet
facet normal 0.000000 1.000000 -0.000025
outer loop
vertex 0.020766 0.299030 -0.903522
vertex 0.029410 0.299030 -0.908142
vertex 0.036987 0.299030 -0.914360
endloop
endfacet
facet normal 0.000000 1.000000 -0.000012
outer loop
vertex 0.036987 0.299030 -0.914360
vertex 0.043205 0.299030 -0.921937
vertex 0.047825 0.299030 -0.930581
endloop
endfacet
facet normal 0.000000 1.000000 0.000000
outer loop
vertex 0.047825 0.299030 -0.930581
vertex 0.050671 0.299030 -0.939961
vertex 0.051631 0.299030 -0.949715
endloop
endfacet
facet normal 0.000000 1.000000 0.000000
outer loop
vertex 0.051631 0.299030 -0.949715
vertex 0.050671 0.299030 -0.959470
vertex 0.047825 0.299030 -0.968850
endloop
endfacet
facet normal 0.000000 1.000000 0.000000
outer loop
vertex 0.047825 0.299030 -0.968850
vertex 0.043205 0.299030 -0.977494
vertex 0.036987 0.299030 -0.985071
endloop
endfacet
facet normal 0.000000 1.000000 0.000025
outer loop
vertex 0.036987 0.299030 -0.985071
vertex 0.029410 0.299030 -0.991289
vertex 0.020766 0.299030 -0.995909
endloop
endfacet
facet normal 0.000000 1.000000 0.000000
outer loop
vertex 0.020766 0.299030 -0.995909
vertex 0.011386 0.299030 -0.998755
vertex 0.001631 0.299030 -0.999716
endloop
endfacet
facet normal 0.000000 1.000000 0.000000
outer loop
vertex 0.001631 0.299030 -0.999716
vertex -0.008123 0.299030 -0.998755
vertex -0.017503 0.299030 -0.995909
endloop
endfacet
facet normal 0.000000 1.000000 0.000000
outer loop
vertex -0.017503 0.299030 -0.995909
vertex -0.026147 0.299030 -0.991289
vertex -0.033724 0.299030 -0.985071
endloop
endfacet
facet normal 0.000000 1.000000 0.000012
outer loop
vertex -0.033724 0.299030 -0.985071
vertex -0.039942 0.299030 -0.977494
vertex -0.044563 0.299030 -0.968850
endloop
endfacet
facet normal 0.000000 1.000000 0.000000
outer loop
vertex -0.044563 0.299030 -0.968850
vertex -0.047408 0.299030 -0.959470
vertex -0.048369 0.299030 -0.949715
endloop
endfacet
facet normal 0.000000 1.000000 -0.000003
outer loop
vertex -0.048369 0.299030 -0.949715
vertex -0.044563 0.299030 -0.930581
vertex -0.033724 0.299030 -0.914360
endloop
endfacet
facet normal 0.000000 1.000000 0.000006
outer loop
vertex -0.033724 0.299030 -0.914360
vertex -0.017503 0.299030 -0.903522
vertex 0.001631 0.299030 -0.899715
endloop
endfacet
facet normal 0.000000 1.000000 0.000000
outer loop
vertex 0.001631 0.299030 -0.899715
vertex 0.020766 0.299030 -0.903522
vertex 0.036987 0.299030 -0.914360
endloop
endfacet
facet normal 0.000000 1.000000 0.000005
outer loop
vertex 0.036987 0.299030 -0.914360
vertex 0.047825 0.299030 -0.930581
vertex 0.051631 0.299030 -0.949715
endloop
endfacet
facet normal 0.000000 1.000000 0.000003
outer loop
vertex 0.051631 0.299030 -0.949715
vertex 0.047825 0.299030 -0.968850
vertex 0.036987 0.299030 -0.985071
endloop
endfacet
facet normal 0.000000 1.000000 -0.000013
outer loop
vertex 0.036987 0.299030 -0.985071
vertex 0.020766 0.299030 -0.995909
vertex 0.001631 0.299030 -0.999716
endloop
endfacet
facet normal 0.000000 1.000000 0.000006
outer loop
vertex 0.001631 0.299030 -0.999716
vertex -0.017503 0.299030 -0.995909
vertex -0.033724 0.299030 -0.985071
endloop
endfacet
facet normal 0.000000 1.000000 -0.000005
outer loop
vertex -0.033724 0.299030 -0.985071
vertex -0.044563 0.299030 -0.968850
vertex -0.048369 0.299030 -0.949715
endloop
endfacet
facet normal 0.000000 1.000000 -0.000002
outer loop
vertex -0.048369 0.299030 -0.949715
vertex -0.033724 0.299030 -0.914360
vertex 0.001631 0.299030 -0.899715
endloop
endfacet
facet normal 0.000000 1.000000 0.000002
outer loop
vertex 0.001631 0.299030 -0.899715
vertex 0.036987 0.299030 -0.914360
vertex 0.051631 0.299030 -0.949715
endloop
endfacet
facet normal 0.000000 1.000000 0.000000
outer loop
vertex 0.051631 0.299030 -0.949715
vertex 0.036987 0.299030 -0.985071
vertex 0.001631 0.299030 -0.999716
endloop
endfacet
facet normal 0.000000 1.000000 0.000000
outer loop
vertex 0.001631 0.299030 -0.999716
vertex -0.033724 0.299030 -0.985071
vertex -0.048369 0.299030 -0.949715
endloop
endfacet
facet normal 0.000000 1.000000 0.000000
outer loop
vertex -0.048369 0.299030 -0.949715
vertex 0.001631 0.299030 -0.899715
vertex 0.051631 0.299030 -0.949715
endloop
endfacet
facet normal 0.000000 1.000000 0.000000
outer loop
vertex 0.051631 0.299030 -0.949715
vertex 0.001631 0.299030 -0.999716
vertex -0.048369 0.299030 -0.949715
endloop
endfacet
endsolid outlet
