solid inlet
facet normal 0.000000 -1.000000 0.000337
outer loop
vertex 0.003259 -0.290000 -0.010210
vertex 0.001644 -0.290000 -0.010053
vertex 0.000000 -0.290000 -0.010000
endloop
endfacet
facet normal 0.000000 -1.000000 0.000000
outer loop
vertex 0.000000 -0.290000 -0.010000
vertex 0.000000 -0.290000 -0.060000
vertex 0.001644 -0.290000 -0.059947
endloop
endfacet
facet normal 0.000000 -1.000000 0.000000
outer loop
vertex 0.001644 -0.290000 -0.059947
vertex 0.003259 -0.290000 -0.059789
vertex 0.004843 -0.290000 -0.059531
endloop
endfacet
facet normal 0.000000 -1.000000 0.000364
outer loop
vertex 0.004843 -0.290000 -0.059531
vertex 0.006392 -0.290000 -0.059176
vertex 0.007902 -0.290000 -0.058725
endloop
endfacet
facet normal 0.000000 -1.000000 0.000380
outer loop
vertex 0.007902 -0.290000 -0.058725
vertex 0.009371 -0.290000 -0.058184
vertex 0.010795 -0.290000 -0.057556
endloop
endfacet
facet normal 0.000000 -1.000000 0.000000
outer loop
vertex 0.010795 -0.290000 -0.057556
vertex 0.012171 -0.290000 -0.056843
vertex 0.013495 -0.290000 -0.056048
endloop
endfacet
facet normal 0.000000 -1.000000 0.000000
outer loop
vertex 0.013495 -0.290000 -0.056048
vertex 0.014765 -0.290000 -0.055176
vertex 0.015976 -0.290000 -0.054230
endloop
endfacet
facet normal 0.000000 -1.000000 0.000000
outer loop
vertex 0.015976 -0.290000 -0.054230
vertex 0.017127 -0.290000 -0.053212
vertex 0.018212 -0.290000 -0.052127
endloop
endfacet
facet normal 0.000000 -1.000000 0.000403
outer loop
vertex 0.018212 -0.290000 -0.052127
vertex 0.019230 -0.290000 -0.050976
vertex 0.020176 -0.290000 -0.049765
endloop
endfacet
facet normal 0.000000 -1.000000 -0.000199
outer loop
vertex 0.020176 -0.290000 -0.049765
vertex 0.021048 -0.290000 -0.048495
vertex 0.021843 -0.290000 -0.047171
endloop
endfacet
facet normal 0.000000 -1.000000 0.000193
outer loop
vertex 0.021843 -0.290000 -0.047171
vertex 0.022556 -0.290000 -0.045795
vertex 0.023184 -0.290000 -0.044371
endloop
endfacet
facet normal 0.000000 -1.000000 -0.000186
outer loop
vertex 0.023184 -0.290000 -0.044371
vertex 0.023725 -0.290000 -0.042902
vertex 0.024176 -0.290000 -0.041391
endloop
endfacet
facet normal 0.000000 -1.000000 0.000000
outer loop
vertex 0.024176 -0.290000 -0.041391
vertex 0.024531 -0.290000 -0.039843
vertex 0.024789 -0.290000 -0.038259
endloop
endfacet
facet normal 0.000000 -1.000000 -0.000021
outer loop
vertex 0.024789 -0.290000 -0.038259
vertex 0.024947 -0.290000 -0.036644
vertex 0.025000 -0.290000 -0.035000
endloop
endfacet
facet normal 0.000000 -1.000000 0.000000
outer loop
vertex 0.025000 -0.290000 -0.035000
vertex 0.024947 -0.290000 -0.033356
vertex 0.024789 -0.290000 -0.031741
endloop
endfacet
facet normal 0.000000 -1.000000 0.000000
outer loop
vertex 0.024789 -0.290000 -0.031741
vertex 0.024531 -0.290000 -0.030157
vertex 0.024176 -0.290000 -0.028608
endloop
endfacet
facet normal 0.000000 -1.000000 0.000186
outer loop
vertex 0.024176 -0.290000 -0.028608
vertex 0.023725 -0.290000 -0.027098
vertex 0.023184 -0.290000 -0.025629
endloop
endfacet
facet normal 0.000000 -1.000000 -0.000193
outer loop
vertex 0.023184 -0.290000 -0.025629
vertex 0.022556 -0.290000 -0.024205
vertex 0.021843 -0.290000 -0.022829
endloop
endfacet
facet normal 0.000000 -1.000000 0.000397
outer loop
vertex 0.021843 -0.290000 -0.022829
vertex 0.021048 -0.290000 -0.021505
vertex 0.020176 -0.290000 -0.020235
endloop
endfacet
facet normal 0.000000 -1.000000 0.000000
outer loop
vertex 0.020176 -0.290000 -0.020235
vertex 0.019230 -0.290000 -0.019024
vertex 0.018212 -0.290000 -0.017873
endloop
endfacet
facet normal 0.000000 -1.000000 0.000405
outer loop
vertex 0.018212 -0.290000 -0.017873
vertex 0.017127 -0.290000 -0.016788
vertex 0.015976 -0.290000 -0.015770
endloop
endfacet
facet normal 0.000000 -1.000000 0.000000
outer loop
vertex 0.015976 -0.290000 -0.015770
vertex 0.014765 -0.290000 -0.014824
vertex 0.013495 -0.290000 -0.013952
endloop
endfacet
facet normal 0.000000 -1.000000 0.000000
outer loop
vertex 0.013495 -0.290000 -0.013952
vertex 0.012171 -0.290000 -0.013157
vertex 0.010795 -0.290000 -0.012444
endloop
endfacet
facet normal 0.000000 -1.000000 -0.000380
outer loop
vertex 0.010795 -0.290000 -0.012444
vertex 0.009371 -0.290000 -0.011816
vertex 0.007902 -0.290000 -0.011274
endloop
endfacet
facet normal 0.000000 -1.000000 0.000365
outer loop
vertex 0.007902 -0.290000 -0.011274
vertex 0.006392 -0.290000 -0.010824
vertex 0.004843 -0.290000 -0.010469
endloop
endfacet
facet normal 0.000000 -1.000000 -0.000229
outer loop
vertex 0.004843 -0.290000 -0.010469
vertex 0.003259 -0.290000 -0.010210
vertex 0.000000 -0.290000 -0.010000
endloop
endfacet
facet normal 0.000000 -1.000000 0.000001
outer loop
vertex 0.000000 -0.290000 -0.010000
vertex 0.001644 -0.290000 -0.059947
vertex 0.004843 -0.290000 -0.059531
endloop
endfacet
facet normal 0.000000 -1.000000 0.000000
outer loop
vertex 0.004843 -0.290000 -0.059531
vertex 0.007902 -0.290000 -0.058725
vertex 0.010795 -0.290000 -0.057556
endloop
endfacet
facet normal 0.000000 -1.000000 -0.000099
outer loop
vertex 0.010795 -0.290000 -0.057556
vertex 0.013495 -0.290000 -0.056048
vertex 0.015976 -0.290000 -0.054230
endloop
endfacet
facet normal 0.000000 -1.000000 0.000101
outer loop
vertex 0.015976 -0.290000 -0.054230
vertex 0.018212 -0.290000 -0.052127
vertex 0.020176 -0.290000 -0.049765
endloop
endfacet
facet normal 0.000000 -1.000000 0.000000
outer loop
vertex 0.020176 -0.290000 -0.049765
vertex 0.021843 -0.290000 -0.047171
vertex 0.023184 -0.290000 -0.044371
endloop
endfacet
facet normal 0.000000 -1.000000 0.000000
outer loop
vertex 0.023184 -0.290000 -0.044371
vertex 0.024176 -0.290000 -0.041391
vertex 0.024789 -0.290000 -0.038259
endloop
endfacet
facet normal 0.000000 -1.000000 0.000000
outer loop
vertex 0.024789 -0.290000 -0.038259
vertex 0.025000 -0.290000 -0.035000
vertex 0.024789 -0.290000 -0.031741
endloop
endfacet
facet normal 0.000000 -1.000000 0.000000
outer loop
vertex 0.024789 -0.290000 -0.031741
vertex 0.024176 -0.290000 -0.028608
vertex 0.023184 -0.290000 -0.025629
endloop
endfacet
facet normal 0.000000 -1.000000 0.000000
outer loop
vertex 0.023184 -0.290000 -0.025629
vertex 0.021843 -0.290000 -0.022829
vertex 0.020176 -0.290000 -0.020235
endloop
endfacet
facet normal 0.000000 -1.000000 -0.000101
outer loop
vertex 0.020176 -0.290000 -0.020235
vertex 0.018212 -0.290000 -0.017873
vertex 0.015976 -0.290000 -0.015770
endloop
endfacet
facet normal 0.000000 -1.000000 0.000099
outer loop
vertex 0.015976 -0.290000 -0.015770
vertex 0.013495 -0.290000 -0.013952
vertex 0.010795 -0.290000 -0.012444
endloop
endfacet
facet normal 0.000000 -1.000000 0.000093
outer loop
vertex 0.010795 -0.290000 -0.012444
vertex 0.007902 -0.290000 -0.011274
vertex 0.004843 -0.290000 -0.010469
endloop
endfacet
facet normal 0.000000 -1.000000 0.000000
outer loop
vertex 0.004843 -0.290000 -0.010469
vertex 0.000000 -0.290000 -0.010000
vertex 0.004843 -0.290000 -0.059531
endloop
endfacet
facet normal 0.000000 -1.000000 0.000000
outer loop
vertex 0.004843 -0.290000 -0.059531
vertex 0.010795 -0.290000 -0.057556
vertex 0.015976 -0.290000 -0.054230
endloop
endfacet
facet normal 0.000000 -1.000000 0.000000
outer loop
vertex 0.015976 -0.290000 -0.054230
vertex 0.020176 -0.290000 -0.049765
vertex 0.023184 -0.290000 -0.044371
endloop
endfacet
facet normal 0.000000 -1.000000 0.000000
outer loop
vertex 0.023184 -0.290000 -0.044371
vertex 0.024789 -0.290000 -0.038259
vertex 0.024789 -0.290000 -0.031741
endloop
endfacet
facet normal 0.000000 -1.000000 0.000012
outer loop
vertex 0.024789 -0.290000 -0.031741
vertex 0.023184 -0.290000 -0.025629
vertex 0.020176 -0.290000 -0.020235
endloop
endfacet
facet normal 0.000000 -1.000000 0.000000
outer loop
vertex 0.020176 -0.290000 -0.020235
vertex 0.015976 -0.290000 -0.015770
vertex 0.010795 -0.290000 -0.012444
endloop
endfacet
facet normal 0.000000 -1.000000 0.000000
outer loop
vertex 0.010795 -0.290000 -0.012444
vertex 0.004843 -0.290000 -0.010469
vertex 0.004843 -0.290000 -0.059531
endloop
endfacet
facet normal 0.000000 -1.000000 0.000007
outer loop
vertex 0.004843 -0.290000 -0.059531
vertex 0.015976 -0.290000 -0.054230
vertex 0.023184 -0.290000 -0.044371
endloop
endfacet
facet normal 0.000000 -1.000000 0.000000
outer loop
vertex 0.023184 -0.290000 -0.044371
vertex 0.024789 -0.290000 -0.031741
vertex 0.020176 -0.290000 -0.020235
endloop
endfacet
facet normal 0.000000 -1.000000 0.000000
outer loop
vertex 0.020176 -0.290000 -0.020235
vertex 0.010795 -0.290000 -0.012444
vertex 0.004843 -0.290000 -0.059531
endloop
endfacet
facet normal 0.000000 -1.000000 -0.000002
outer loop
vertex 0.004843 -0.290000 -0.059531
vertex 0.023184 -0.290000 -0.044371
vertex 0.020176 -0.290000 -0.020235
endloop
endfacet
endsolid inlet
