solid pipe
facet normal 0.000000 0.000000 1.000000
outer loop
vertex 0.149947 0.001644 0.000000
vertex 0.149789 0.003259 0.000000
vertex 0.149531 0.004843 0.000000
endloop
endfacet
facet normal 0.000000 0.000000 1.000000
outer loop
vertex 0.149531 0.004843 0.000000
vertex 0.149176 0.006392 0.000000
vertex 0.148725 0.007902 0.000000
endloop
endfacet
facet normal 0.000000 0.000000 1.000000
outer loop
vertex 0.148725 0.007902 0.000000
vertex 0.148184 0.009371 0.000000
vertex 0.147556 0.010795 0.000000
endloop
endfacet
facet normal 0.000000 0.000000 1.000000
outer loop
vertex 0.147556 0.010795 0.000000
vertex 0.146843 0.012171 0.000000
vertex 0.146048 0.013495 0.000000
endloop
endfacet
facet normal 0.000000 0.000000 1.000000
outer loop
vertex 0.146048 0.013495 0.000000
vertex 0.145176 0.014765 0.000000
vertex 0.144230 0.015976 0.000000
endloop
endfacet
facet normal 0.000000 0.000000 1.000000
outer loop
vertex 0.144230 0.015976 0.000000
vertex 0.143212 0.017127 0.000000
vertex 0.142127 0.018212 0.000000
endloop
endfacet
facet normal 0.000000 0.000000 1.000000
outer loop
vertex 0.142127 0.018212 0.000000
vertex 0.140976 0.019230 0.000000
vertex 0.139765 0.020176 0.000000
endloop
endfacet
facet normal 0.000000 0.000000 1.000000
outer loop
vertex 0.139765 0.020176 0.000000
vertex 0.138495 0.021048 0.000000
vertex 0.137171 0.021843 0.000000
endloop
endfacet
facet normal 0.000000 0.000000 1.000000
outer loop
vertex 0.137171 0.021843 0.000000
vertex 0.135795 0.022556 0.000000
vertex 0.134371 0.023184 0.000000
endloop
endfacet
facet normal 0.000000 0.000000 1.000000
outer loop
vertex 0.134371 0.023184 0.000000
vertex 0.132902 0.023725 0.000000
vertex 0.131391 0.024176 0.000000
endloop
endfacet
facet normal 0.000000 0.000000 1.000000
outer loop
vertex 0.131391 0.024176 0.000000
vertex 0.129843 0.024531 0.000000
vertex 0.128259 0.024789 0.000000
endloop
endfacet
facet normal 0.000000 0.000000 1.000000
outer loop
vertex 0.128259 0.024789 0.000000
vertex 0.126644 0.024947 0.000000
vertex 0.125000 0.025000 0.000000
endloop
endfacet
facet normal 0.000000 0.000000 1.000000
outer loop
vertex 0.125000 0.025000 0.000000
vertex 0.123356 0.024947 0.000000
vertex 0.121741 0.024789 0.000000
endloop
endfacet
facet normal 0.000000 0.000000 1.000000
outer loop
vertex 0.121741 0.024789 0.000000
vertex 0.120157 0.024531 0.000000
vertex 0.118608 0.024176 0.000000
endloop
endfacet
facet normal 0.000000 0.000000 1.000000
outer loop
vertex 0.118608 0.024176 0.000000
vertex 0.117098 0.023725 0.000000
vertex 0.115629 0.023184 0.000000
endloop
endfacet
facet normal 0.000000 0.000000 1.000000
outer loop
vertex 0.115629 0.023184 0.000000
vertex 0.114205 0.022556 0.000000
vertex 0.112829 0.021843 0.000000
endloop
endfacet
facet normal 0.000000 0.000000 1.000000
outer loop
vertex 0.112829 0.021843 0.000000
vertex 0.111505 0.021048 0.000000
vertex 0.110235 0.020176 0.000000
endloop
endfacet
facet normal 0.000000 0.000000 1.000000
outer loop
vertex 0.110235 0.020176 0.000000
vertex 0.109024 0.019230 0.000000
vertex 0.107873 0.018212 0.000000
endloop
endfacet
facet normal 0.000000 0.000000 1.000000
outer loop
vertex 0.107873 0.018212 0.000000
vertex 0.106788 0.017127 0.000000
vertex 0.105770 0.015976 0.000000
endloop
endfacet
facet normal 0.000000 0.000000 1.000000
outer loop
vertex 0.105770 0.015976 0.000000
vertex 0.104824 0.014765 0.000000
vertex 0.103952 0.013495 0.000000
endloop
endfacet
facet normal 0.000000 0.000000 1.000000
outer loop
vertex 0.103952 0.013495 0.000000
vertex 0.103157 0.012171 0.000000
vertex 0.102444 0.010795 0.000000
endloop
endfacet
facet normal 0.000000 0.000000 1.000000
outer loop
vertex 0.102444 0.010795 0.000000
vertex 0.101816 0.009371 0.000000
vertex 0.101275 0.007902 0.000000
endloop
endfacet
facet normal 0.000000 0.000000 1.000000
outer loop
vertex 0.101275 0.007902 0.000000
vertex 0.100824 0.006392 0.000000
vertex 0.100469 0.004843 0.000000
endloop
endfacet
facet normal 0.000000 0.000000 1.000000
outer loop
vertex 0.100469 0.004843 0.000000
vertex 0.100211 0.003259 0.000000
vertex 0.100053 0.001644 0.000000
endloop
endfacet
facet normal 0.000000 0.000000 1.000000
outer loop
vertex 0.100053 0.001644 0.000000
vertex 0.100000 0.000000 0.000000
vertex 0.100053 -0.001644 0.000000
endloop
endfacet
facet normal 0.000000 0.000000 1.000000
outer loop
vertex 0.100053 -0.001644 0.000000
vertex 0.100211 -0.003259 0.000000
vertex 0.100469 -0.004843 0.000000
endloop
endfacet
facet normal 0.000000 0.000000 1.000000
outer loop
vertex 0.100469 -0.004843 0.000000
vertex 0.100824 -0.006392 0.000000
vertex 0.101275 -0.007902 0.000000
endloop
endfacet
facet normal 0.000000 0.000000 1.000000
outer loop
vertex 0.101275 -0.007902 0.000000
vertex 0.101816 -0.009371 0.000000
vertex 0.102444 -0.010795 0.000000
endloop
endfacet
facet normal 0.000000 0.000000 1.000000
outer loop
vertex 0.102444 -0.010795 0.000000
vertex 0.103157 -0.012171 0.000000
vertex 0.103952 -0.013495 0.000000
endloop
endfacet
facet normal 0.000000 0.000000 1.000000
outer loop
vertex 0.103952 -0.013495 0.000000
vertex 0.104824 -0.014765 0.000000
vertex 0.105770 -0.015976 0.000000
endloop
endfacet
facet normal 0.000000 0.000000 1.000000
outer loop
vertex 0.105770 -0.015976 0.000000
vertex 0.106788 -0.017127 0.000000
vertex 0.107873 -0.018212 0.000000
endloop
endfacet
facet normal 0.000000 0.000000 1.000000
outer loop
vertex 0.107873 -0.018212 0.000000
vertex 0.109024 -0.019230 0.000000
vertex 0.110235 -0.020176 0.000000
endloop
endfacet
facet normal 0.000000 0.000000 1.000000
outer loop
vertex 0.110235 -0.020176 0.000000
vertex 0.111505 -0.021048 0.000000
vertex 0.112829 -0.021843 0.000000
endloop
endfacet
facet normal 0.000000 0.000000 1.000000
outer loop
vertex 0.112829 -0.021843 0.000000
vertex 0.114205 -0.022556 0.000000
vertex 0.115629 -0.023184 0.000000
endloop
endfacet
facet normal 0.000000 0.000000 1.000000
outer loop
vertex 0.115629 -0.023184 0.000000
vertex 0.117098 -0.023725 0.000000
vertex 0.118609 -0.024176 0.000000
endloop
endfacet
facet normal 0.000000 0.000000 1.000000
outer loop
vertex 0.118609 -0.024176 0.000000
vertex 0.120157 -0.024531 0.000000
vertex 0.121741 -0.024790 0.000000
endloop
endfacet
facet normal 0.000000 0.000000 1.000000
outer loop
vertex 0.121741 -0.024790 0.000000
vertex 0.123356 -0.024947 0.000000
vertex 0.125000 -0.025000 0.000000
endloop
endfacet
facet normal 0.000000 0.000000 1.000000
outer loop
vertex 0.125000 -0.025000 0.000000
vertex 0.126644 -0.024947 0.000000
vertex 0.128259 -0.024789 0.000000
endloop
endfacet
facet normal 0.000000 0.000000 1.000000
outer loop
vertex 0.128259 -0.024789 0.000000
vertex 0.129843 -0.024531 0.000000
vertex 0.131392 -0.024176 0.000000
endloop
endfacet
facet normal 0.000000 0.000000 1.000000
outer loop
vertex 0.131392 -0.024176 0.000000
vertex 0.132902 -0.023725 0.000000
vertex 0.134371 -0.023184 0.000000
endloop
endfacet
facet normal 0.000000 0.000000 1.000000
outer loop
vertex 0.134371 -0.023184 0.000000
vertex 0.135795 -0.022556 0.000000
vertex 0.137171 -0.021843 0.000000
endloop
endfacet
facet normal 0.000000 0.000000 1.000000
outer loop
vertex 0.137171 -0.021843 0.000000
vertex 0.138495 -0.021048 0.000000
vertex 0.139765 -0.020176 0.000000
endloop
endfacet
facet normal 0.000000 0.000000 1.000000
outer loop
vertex 0.139765 -0.020176 0.000000
vertex 0.140976 -0.019230 0.000000
vertex 0.142127 -0.018212 0.000000
endloop
endfacet
facet normal 0.000000 0.000000 1.000000
outer loop
vertex 0.142127 -0.018212 0.000000
vertex 0.143212 -0.017127 0.000000
vertex 0.144230 -0.015976 0.000000
endloop
endfacet
facet normal 0.000000 0.000000 1.000000
outer loop
vertex 0.144230 -0.015976 0.000000
vertex 0.145176 -0.014765 0.000000
vertex 0.146048 -0.013495 0.000000
endloop
endfacet
facet normal 0.000000 0.000000 1.000000
outer loop
vertex 0.146048 -0.013495 0.000000
vertex 0.146843 -0.012171 0.000000
vertex 0.147556 -0.010795 0.000000
endloop
endfacet
facet normal 0.000000 0.000000 1.000000
outer loop
vertex 0.147556 -0.010795 0.000000
vertex 0.148184 -0.009371 0.000000
vertex 0.148725 -0.007902 0.000000
endloop
endfacet
facet normal 0.000000 0.000000 1.000000
outer loop
vertex 0.148725 -0.007902 0.000000
vertex 0.149176 -0.006392 0.000000
vertex 0.149531 -0.004843 0.000000
endloop
endfacet
facet normal 0.000000 0.000000 1.000000
outer loop
vertex 0.149531 -0.004843 0.000000
vertex 0.149789 -0.003259 0.000000
vertex 0.149947 -0.001644 0.000000
endloop
endfacet
facet normal 0.000000 0.000000 1.000000
outer loop
vertex 0.149947 -0.001644 0.000000
vertex 0.150000 -0.000000 0.000000
vertex 0.149947 0.001644 0.000000
endloop
endfacet
facet normal 0.000000 0.000000 1.000000
outer loop
vertex 0.149947 0.001644 0.000000
vertex 0.149531 0.004843 0.000000
vertex 0.148725 0.007902 0.000000
endloop
endfacet
facet normal 0.000000 0.000000 1.000000
outer loop
vertex 0.148725 0.007902 0.000000
vertex 0.147556 0.010795 0.000000
vertex 0.146048 0.013495 0.000000
endloop
endfacet
facet normal 0.000000 0.000000 1.000000
outer loop
vertex 0.146048 0.013495 0.000000
vertex 0.144230 0.015976 0.000000
vertex 0.142127 0.018212 0.000000
endloop
endfacet
facet normal 0.000000 0.000000 1.000000
outer loop
vertex 0.142127 0.018212 0.000000
vertex 0.139765 0.020176 0.000000
vertex 0.137171 0.021843 0.000000
endloop
endfacet
facet normal 0.000000 0.000000 1.000000
outer loop
vertex 0.137171 0.021843 0.000000
vertex 0.134371 0.023184 0.000000
vertex 0.131391 0.024176 0.000000
endloop
endfacet
facet normal 0.000000 0.000000 1.000000
outer loop
vertex 0.131391 0.024176 0.000000
vertex 0.128259 0.024789 0.000000
vertex 0.125000 0.025000 0.000000
endloop
endfacet
facet normal 0.000000 0.000000 1.000000
outer loop
vertex 0.125000 0.025000 0.000000
vertex 0.121741 0.024789 0.000000
vertex 0.118608 0.024176 0.000000
endloop
endfacet
facet normal 0.000000 0.000000 1.000000
outer loop
vertex 0.118608 0.024176 0.000000
vertex 0.115629 0.023184 0.000000
vertex 0.112829 0.021843 0.000000
endloop
endfacet
facet normal 0.000000 0.000000 1.000000
outer loop
vertex 0.112829 0.021843 0.000000
vertex 0.110235 0.020176 0.000000
vertex 0.107873 0.018212 0.000000
endloop
endfacet
facet normal 0.000000 0.000000 1.000000
outer loop
vertex 0.107873 0.018212 0.000000
vertex 0.105770 0.015976 0.000000
vertex 0.103952 0.013495 0.000000
endloop
endfacet
facet normal 0.000000 0.000000 1.000000
outer loop
vertex 0.103952 0.013495 0.000000
vertex 0.102444 0.010795 0.000000
vertex 0.101275 0.007902 0.000000
endloop
endfacet
facet normal 0.000000 0.000000 1.000000
outer loop
vertex 0.101275 0.007902 0.000000
vertex 0.100469 0.004843 0.000000
vertex 0.100053 0.001644 0.000000
endloop
endfacet
facet normal 0.000000 0.000000 1.000000
outer loop
vertex 0.100053 0.001644 0.000000
vertex 0.100053 -0.001644 0.000000
vertex 0.100469 -0.004843 0.000000
endloop
endfacet
facet normal 0.000000 0.000000 1.000000
outer loop
vertex 0.100469 -0.004843 0.000000
vertex 0.101275 -0.007902 0.000000
vertex 0.102444 -0.010795 0.000000
endloop
endfacet
facet normal 0.000000 0.000000 1.000000
outer loop
vertex 0.102444 -0.010795 0.000000
vertex 0.103952 -0.013495 0.000000
vertex 0.105770 -0.015976 0.000000
endloop
endfacet
facet normal 0.000000 0.000000 1.000000
outer loop
vertex 0.105770 -0.015976 0.000000
vertex 0.107873 -0.018212 0.000000
vertex 0.110235 -0.020176 0.000000
endloop
endfacet
facet normal 0.000000 0.000000 1.000000
outer loop
vertex 0.110235 -0.020176 0.000000
vertex 0.112829 -0.021843 0.000000
vertex 0.115629 -0.023184 0.000000
endloop
endfacet
facet normal 0.000000 0.000000 1.000000
outer loop
vertex 0.115629 -0.023184 0.000000
vertex 0.118609 -0.024176 0.000000
vertex 0.121741 -0.024790 0.000000
endloop
endfacet
facet normal 0.000000 0.000000 1.000000
outer loop
vertex 0.121741 -0.024790 0.000000
vertex 0.125000 -0.025000 0.000000
vertex 0.128259 -0.024789 0.000000
endloop
endfacet
facet normal 0.000000 0.000000 1.000000
outer loop
vertex 0.128259 -0.024789 0.000000
vertex 0.131392 -0.024176 0.000000
vertex 0.134371 -0.023184 0.000000
endloop
endfacet
facet normal 0.000000 0.000000 1.000000
outer loop
vertex 0.134371 -0.023184 0.000000
vertex 0.137171 -0.021843 0.000000
vertex 0.139765 -0.020176 0.000000
endloop
endfacet
facet normal 0.000000 0.000000 1.000000
outer loop
vertex 0.139765 -0.020176 0.000000
vertex 0.142127 -0.018212 0.000000
vertex 0.144230 -0.015976 0.000000
endloop
endfacet
facet normal 0.000000 0.000000 1.000000
outer loop
vertex 0.144230 -0.015976 0.000000
vertex 0.146048 -0.013495 0.000000
vertex 0.147556 -0.010795 0.000000
endloop
endfacet
facet normal 0.000000 0.000000 1.000000
outer loop
vertex 0.147556 -0.010795 0.000000
vertex 0.148725 -0.007902 0.000000
vertex 0.149531 -0.004843 0.000000
endloop
endfacet
facet normal 0.000000 0.000000 1.000000
outer loop
vertex 0.149531 -0.004843 0.000000
vertex 0.149947 -0.001644 0.000000
vertex 0.149947 0.001644 0.000000
endloop
endfacet
facet normal 0.000000 0.000000 1.000000
outer loop
vertex 0.149947 0.001644 0.000000
vertex 0.148725 0.007902 0.000000
vertex 0.146048 0.013495 0.000000
endloop
endfacet
facet normal 0.000000 0.000000 1.000000
outer loop
vertex 0.146048 0.013495 0.000000
vertex 0.142127 0.018212 0.000000
vertex 0.137171 0.021843 0.000000
endloop
endfacet
facet normal 0.000000 0.000000 1.000000
outer loop
vertex 0.137171 0.021843 0.000000
vertex 0.131391 0.024176 0.000000
vertex 0.125000 0.025000 0.000000
endloop
endfacet
facet normal 0.000000 0.000000 1.000000
outer loop
vertex 0.125000 0.025000 0.000000
vertex 0.118608 0.024176 0.000000
vertex 0.112829 0.021843 0.000000
endloop
endfacet
facet normal 0.000000 0.000000 1.000000
outer loop
vertex 0.112829 0.021843 0.000000
vertex 0.107873 0.018212 0.000000
vertex 0.103952 0.013495 0.000000
endloop
endfacet
facet normal 0.000000 0.000000 1.000000
outer loop
vertex 0.103952 0.013495 0.000000
vertex 0.101275 0.007902 0.000000
vertex 0.100053 0.001644 0.000000
endloop
endfacet
facet normal 0.000000 0.000000 1.000000
outer loop
vertex 0.100053 0.001644 0.000000
vertex 0.100469 -0.004843 0.000000
vertex 0.102444 -0.010795 0.000000
endloop
endfacet
facet normal 0.000000 0.000000 1.000000
outer loop
vertex 0.102444 -0.010795 0.000000
vertex 0.105770 -0.015976 0.000000
vertex 0.110235 -0.020176 0.000000
endloop
endfacet
facet normal 0.000000 0.000000 1.000000
outer loop
vertex 0.110235 -0.020176 0.000000
vertex 0.115629 -0.023184 0.000000
vertex 0.121741 -0.024790 0.000000
endloop
endfacet
facet normal 0.000000 0.000000 1.000000
outer loop
vertex 0.121741 -0.024790 0.000000
vertex 0.128259 -0.024789 0.000000
vertex 0.134371 -0.023184 0.000000
endloop
endfacet
facet normal 0.000000 0.000000 1.000000
outer loop
vertex 0.134371 -0.023184 0.000000
vertex 0.139765 -0.020176 0.000000
vertex 0.144230 -0.015976 0.000000
endloop
endfacet
facet normal 0.000000 0.000000 1.000000
outer loop
vertex 0.144230 -0.015976 0.000000
vertex 0.147556 -0.010795 0.000000
vertex 0.149531 -0.004843 0.000000
endloop
endfacet
facet normal 0.000000 0.000000 1.000000
outer loop
vertex 0.149531 -0.004843 0.000000
vertex 0.149947 0.001644 0.000000
vertex 0.146048 0.013495 0.000000
endloop
endfacet
facet normal 0.000000 0.000000 1.000000
outer loop
vertex 0.146048 0.013495 0.000000
vertex 0.137171 0.021843 0.000000
vertex 0.125000 0.025000 0.000000
endloop
endfacet
facet normal 0.000000 0.000000 1.000000
outer loop
vertex 0.125000 0.025000 0.000000
vertex 0.112829 0.021843 0.000000
vertex 0.103952 0.013495 0.000000
endloop
endfacet
facet normal 0.000000 0.000000 1.000000
outer loop
vertex 0.103952 0.013495 0.000000
vertex 0.100053 0.001644 0.000000
vertex 0.102444 -0.010795 0.000000
endloop
endfacet
facet normal 0.000000 0.000000 1.000000
outer loop
vertex 0.102444 -0.010795 0.000000
vertex 0.110235 -0.020176 0.000000
vertex 0.121741 -0.024790 0.000000
endloop
endfacet
facet normal 0.000000 0.000000 1.000000
outer loop
vertex 0.121741 -0.024790 0.000000
vertex 0.134371 -0.023184 0.000000
vertex 0.144230 -0.015976 0.000000
endloop
endfacet
facet normal 0.000000 0.000000 1.000000
outer loop
vertex 0.144230 -0.015976 0.000000
vertex 0.149531 -0.004843 0.000000
vertex 0.146048 0.013495 0.000000
endloop
endfacet
facet normal 0.000000 0.000000 1.000000
outer loop
vertex 0.146048 0.013495 0.000000
vertex 0.125000 0.025000 0.000000
vertex 0.103952 0.013495 0.000000
endloop
endfacet
facet normal 0.000000 0.000000 1.000000
outer loop
vertex 0.103952 0.013495 0.000000
vertex 0.102444 -0.010795 0.000000
vertex 0.121741 -0.024790 0.000000
endloop
endfacet
facet normal 0.000000 0.000000 1.000000
outer loop
vertex 0.121741 -0.024790 0.000000
vertex 0.144230 -0.015976 0.000000
vertex 0.146048 0.013495 0.000000
endloop
endfacet
facet normal 0.000000 0.000000 1.000000
outer loop
vertex 0.146048 0.013495 0.000000
vertex 0.103952 0.013495 0.000000
vertex 0.121741 -0.024790 0.000000
endloop
endfacet
facet normal 0.001387 -0.000056 -0.999999
outer loop
vertex 0.149531 0.004843 -1.000000
vertex 0.149789 0.003259 -1.000000
vertex 0.149947 0.001644 -1.000000
endloop
endfacet
facet normal 0.001332 0.000000 -0.999999
outer loop
vertex 0.149947 0.001644 -1.000000
vertex 0.150000 -0.000000 -1.000000
vertex 0.149947 -0.001644 -1.000000
endloop
endfacet
facet normal 0.000000 0.000000 -1.000000
outer loop
vertex 0.149947 -0.001644 -1.000000
vertex 0.149789 -0.003259 -1.000000
vertex 0.149531 -0.004843 -1.000000
endloop
endfacet
facet normal 0.000000 -0.000301 -1.000000
outer loop
vertex 0.149531 -0.004843 -1.000000
vertex 0.149176 -0.006392 -1.000000
vertex 0.148725 -0.007902 -1.000000
endloop
endfacet
facet normal 0.000000 0.000000 -1.000000
outer loop
vertex 0.148725 -0.007902 -1.000000
vertex 0.148184 -0.009371 -1.000000
vertex 0.147556 -0.010795 -1.000000
endloop
endfacet
facet normal 0.000000 0.000000 -1.000000
outer loop
vertex 0.147556 -0.010795 -1.000000
vertex 0.146843 -0.012171 -1.000000
vertex 0.146048 -0.013495 -1.000000
endloop
endfacet
facet normal 0.000000 0.000000 -1.000000
outer loop
vertex 0.146048 -0.013495 -1.000000
vertex 0.145176 -0.014765 -1.000000
vertex 0.144230 -0.015976 -1.000000
endloop
endfacet
facet normal 0.000000 0.000000 -1.000000
outer loop
vertex 0.144230 -0.015976 -1.000000
vertex 0.143212 -0.017127 -1.000000
vertex 0.142127 -0.018212 -1.000000
endloop
endfacet
facet normal 0.000000 0.000475 -1.000000
outer loop
vertex 0.142127 -0.018212 -1.000000
vertex 0.140976 -0.019230 -1.000000
vertex 0.139765 -0.020176 -1.000000
endloop
endfacet
facet normal 0.000000 0.000539 -1.000000
outer loop
vertex 0.139765 -0.020176 -1.000000
vertex 0.138495 -0.021048 -1.000000
vertex 0.137171 -0.021843 -1.000000
endloop
endfacet
facet normal 0.000000 -0.001109 -0.999999
outer loop
vertex 0.137171 -0.021843 -1.000000
vertex 0.135795 -0.022556 -1.000000
vertex 0.134371 -0.023184 -1.000000
endloop
endfacet
facet normal 0.000000 0.000561 -1.000000
outer loop
vertex 0.134371 -0.023184 -1.000000
vertex 0.132902 -0.023725 -1.000000
vertex 0.131392 -0.024176 -1.000000
endloop
endfacet
facet normal -0.000712 0.001142 -0.999999
outer loop
vertex 0.131392 -0.024176 -1.000000
vertex 0.129843 -0.024531 -1.000000
vertex 0.128259 -0.024789 -1.000000
endloop
endfacet
facet normal 0.000000 0.000567 -1.000000
outer loop
vertex 0.128259 -0.024789 -1.000000
vertex 0.126644 -0.024947 -1.000000
vertex 0.125000 -0.025000 -1.000000
endloop
endfacet
facet normal 0.000000 0.000000 -1.000000
outer loop
vertex 0.125000 -0.025000 -1.000000
vertex 0.123356 -0.024947 -1.000000
vertex 0.121741 -0.024790 -1.000000
endloop
endfacet
facet normal 0.000000 0.000577 -1.000000
outer loop
vertex 0.121741 -0.024790 -1.000000
vertex 0.120157 -0.024531 -1.000000
vertex 0.118609 -0.024176 -1.000000
endloop
endfacet
facet normal 0.000000 0.000561 -1.000000
outer loop
vertex 0.118609 -0.024176 -1.000000
vertex 0.117098 -0.023725 -1.000000
vertex 0.115629 -0.023184 -1.000000
endloop
endfacet
facet normal 0.000000 0.000000 -1.000000
outer loop
vertex 0.115629 -0.023184 -1.000000
vertex 0.114205 -0.022556 -1.000000
vertex 0.112829 -0.021843 -1.000000
endloop
endfacet
facet normal 0.000000 0.000539 -1.000000
outer loop
vertex 0.112829 -0.021843 -1.000000
vertex 0.111505 -0.021048 -1.000000
vertex 0.110235 -0.020176 -1.000000
endloop
endfacet
facet normal 0.000000 0.000475 -1.000000
outer loop
vertex 0.110235 -0.020176 -1.000000
vertex 0.109024 -0.019230 -1.000000
vertex 0.107873 -0.018212 -1.000000
endloop
endfacet
facet normal 0.000000 -0.000871 -1.000000
outer loop
vertex 0.107873 -0.018212 -1.000000
vertex 0.106788 -0.017127 -1.000000
vertex 0.105770 -0.015976 -1.000000
endloop
endfacet
facet normal 0.000000 -0.000746 -1.000000
outer loop
vertex 0.105770 -0.015976 -1.000000
vertex 0.104824 -0.014765 -1.000000
vertex 0.103952 -0.013495 -1.000000
endloop
endfacet
facet normal 0.000000 0.000319 -1.000000
outer loop
vertex 0.103952 -0.013495 -1.000000
vertex 0.103157 -0.012171 -1.000000
vertex 0.102444 -0.010795 -1.000000
endloop
endfacet
facet normal 0.000000 0.000211 -1.000000
outer loop
vertex 0.102444 -0.010795 -1.000000
vertex 0.101816 -0.009371 -1.000000
vertex 0.101275 -0.007902 -1.000000
endloop
endfacet
facet normal 0.000000 -0.000301 -1.000000
outer loop
vertex 0.101275 -0.007902 -1.000000
vertex 0.100824 -0.006392 -1.000000
vertex 0.100469 -0.004843 -1.000000
endloop
endfacet
facet normal 0.001387 0.000000 -0.999999
outer loop
vertex 0.100469 -0.004843 -1.000000
vertex 0.100211 -0.003259 -1.000000
vertex 0.100053 -0.001644 -1.000000
endloop
endfacet
facet normal -0.001332 0.000018 -0.999999
outer loop
vertex 0.100053 -0.001644 -1.000000
vertex 0.100000 0.000000 -1.000000
vertex 0.100053 0.001644 -1.000000
endloop
endfacet
facet normal -0.001387 0.000056 -0.999999
outer loop
vertex 0.100053 0.001644 -1.000000
vertex 0.100211 0.003259 -1.000000
vertex 0.100469 0.004843 -1.000000
endloop
endfacet
facet normal 0.000000 0.000301 -1.000000
outer loop
vertex 0.100469 0.004843 -1.000000
vertex 0.100824 0.006392 -1.000000
vertex 0.101275 0.007902 -1.000000
endloop
endfacet
facet normal -0.001521 0.000245 -0.999999
outer loop
vertex 0.101275 0.007902 -1.000000
vertex 0.101816 0.009371 -1.000000
vertex 0.102444 0.010795 -1.000000
endloop
endfacet
facet normal 0.000000 -0.000319 -1.000000
outer loop
vertex 0.102444 0.010795 -1.000000
vertex 0.103157 0.012171 -1.000000
vertex 0.103952 0.013495 -1.000000
endloop
endfacet
facet normal 0.000000 0.000000 -1.000000
outer loop
vertex 0.103952 0.013495 -1.000000
vertex 0.104824 0.014765 -1.000000
vertex 0.105770 0.015976 -1.000000
endloop
endfacet
facet normal 0.000000 0.000871 -1.000000
outer loop
vertex 0.105770 0.015976 -1.000000
vertex 0.106788 0.017127 -1.000000
vertex 0.107873 0.018212 -1.000000
endloop
endfacet
facet normal 0.000000 -0.000475 -1.000000
outer loop
vertex 0.107873 0.018212 -1.000000
vertex 0.109024 0.019230 -1.000000
vertex 0.110235 0.020176 -1.000000
endloop
endfacet
facet normal 0.000000 -0.000539 -1.000000
outer loop
vertex 0.110235 0.020176 -1.000000
vertex 0.111505 0.021048 -1.000000
vertex 0.112829 0.021843 -1.000000
endloop
endfacet
facet normal 0.000000 0.001109 -0.999999
outer loop
vertex 0.112829 0.021843 -1.000000
vertex 0.114205 0.022556 -1.000000
vertex 0.115629 0.023184 -1.000000
endloop
endfacet
facet normal 0.000000 0.000000 -1.000000
outer loop
vertex 0.115629 0.023184 -1.000000
vertex 0.117098 0.023725 -1.000000
vertex 0.118608 0.024176 -1.000000
endloop
endfacet
facet normal 0.000000 0.000000 -1.000000
outer loop
vertex 0.118608 0.024176 -1.000000
vertex 0.120157 0.024531 -1.000000
vertex 0.121741 0.024789 -1.000000
endloop
endfacet
facet normal 0.000000 0.000000 -1.000000
outer loop
vertex 0.121741 0.024789 -1.000000
vertex 0.123356 0.024947 -1.000000
vertex 0.125000 0.025000 -1.000000
endloop
endfacet
facet normal 0.000000 -0.000567 -1.000000
outer loop
vertex 0.125000 0.025000 -1.000000
vertex 0.126644 0.024947 -1.000000
vertex 0.128259 0.024789 -1.000000
endloop
endfacet
facet normal -0.000712 -0.001142 -0.999999
outer loop
vertex 0.128259 0.024789 -1.000000
vertex 0.129843 0.024531 -1.000000
vertex 0.131391 0.024176 -1.000000
endloop
endfacet
facet normal 0.000000 -0.000561 -1.000000
outer loop
vertex 0.131391 0.024176 -1.000000
vertex 0.132902 0.023725 -1.000000
vertex 0.134371 0.023184 -1.000000
endloop
endfacet
facet normal 0.000000 0.001109 -0.999999
outer loop
vertex 0.134371 0.023184 -1.000000
vertex 0.135795 0.022556 -1.000000
vertex 0.137171 0.021843 -1.000000
endloop
endfacet
facet normal 0.000000 -0.000539 -1.000000
outer loop
vertex 0.137171 0.021843 -1.000000
vertex 0.138495 0.021048 -1.000000
vertex 0.139765 0.020176 -1.000000
endloop
endfacet
facet normal 0.000000 -0.000475 -1.000000
outer loop
vertex 0.139765 0.020176 -1.000000
vertex 0.140976 0.019230 -1.000000
vertex 0.142127 0.018212 -1.000000
endloop
endfacet
facet normal 0.000000 0.000000 -1.000000
outer loop
vertex 0.142127 0.018212 -1.000000
vertex 0.143212 0.017127 -1.000000
vertex 0.144230 0.015976 -1.000000
endloop
endfacet
facet normal 0.000000 0.000000 -1.000000
outer loop
vertex 0.144230 0.015976 -1.000000
vertex 0.145176 0.014765 -1.000000
vertex 0.146048 0.013495 -1.000000
endloop
endfacet
facet normal 0.000000 0.000000 -1.000000
outer loop
vertex 0.146048 0.013495 -1.000000
vertex 0.146843 0.012171 -1.000000
vertex 0.147556 0.010795 -1.000000
endloop
endfacet
facet normal 0.000000 0.000000 -1.000000
outer loop
vertex 0.147556 0.010795 -1.000000
vertex 0.148184 0.009371 -1.000000
vertex 0.148725 0.007902 -1.000000
endloop
endfacet
facet normal 0.001459 0.000133 -0.999999
outer loop
vertex 0.148725 0.007902 -1.000000
vertex 0.149176 0.006392 -1.000000
vertex 0.149531 0.004843 -1.000000
endloop
endfacet
facet normal -0.000682 0.000000 -1.000000
outer loop
vertex 0.149531 0.004843 -1.000000
vertex 0.149947 0.001644 -1.000000
vertex 0.149947 -0.001644 -1.000000
endloop
endfacet
facet normal 0.000356 0.000000 -1.000000
outer loop
vertex 0.149947 -0.001644 -1.000000
vertex 0.149531 -0.004843 -1.000000
vertex 0.148725 -0.007902 -1.000000
endloop
endfacet
facet normal 0.000000 0.000000 -1.000000
outer loop
vertex 0.148725 -0.007902 -1.000000
vertex 0.147556 -0.010795 -1.000000
vertex 0.146048 -0.013495 -1.000000
endloop
endfacet
facet normal 0.000000 0.000000 -1.000000
outer loop
vertex 0.146048 -0.013495 -1.000000
vertex 0.144230 -0.015976 -1.000000
vertex 0.142127 -0.018212 -1.000000
endloop
endfacet
facet normal 0.000000 -0.000255 -1.000000
outer loop
vertex 0.142127 -0.018212 -1.000000
vertex 0.139765 -0.020176 -1.000000
vertex 0.137171 -0.021843 -1.000000
endloop
endfacet
facet normal 0.000000 0.000136 -1.000000
outer loop
vertex 0.137171 -0.021843 -1.000000
vertex 0.134371 -0.023184 -1.000000
vertex 0.131392 -0.024176 -1.000000
endloop
endfacet
facet normal 0.000087 -0.000139 -1.000000
outer loop
vertex 0.131392 -0.024176 -1.000000
vertex 0.128259 -0.024789 -1.000000
vertex 0.125000 -0.025000 -1.000000
endloop
endfacet
facet normal 0.000000 0.000145 -1.000000
outer loop
vertex 0.125000 -0.025000 -1.000000
vertex 0.121741 -0.024790 -1.000000
vertex 0.118609 -0.024176 -1.000000
endloop
endfacet
facet normal 0.000000 0.000136 -1.000000
outer loop
vertex 0.118609 -0.024176 -1.000000
vertex 0.115629 -0.023184 -1.000000
vertex 0.112829 -0.021843 -1.000000
endloop
endfacet
facet normal 0.000000 -0.000255 -1.000000
outer loop
vertex 0.112829 -0.021843 -1.000000
vertex 0.110235 -0.020176 -1.000000
vertex 0.107873 -0.018212 -1.000000
endloop
endfacet
facet normal 0.000000 0.000000 -1.000000
outer loop
vertex 0.107873 -0.018212 -1.000000
vertex 0.105770 -0.015976 -1.000000
vertex 0.103952 -0.013495 -1.000000
endloop
endfacet
facet normal 0.000000 -0.000133 -1.000000
outer loop
vertex 0.103952 -0.013495 -1.000000
vertex 0.102444 -0.010795 -1.000000
vertex 0.101275 -0.007902 -1.000000
endloop
endfacet
facet normal 0.000000 0.000000 -1.000000
outer loop
vertex 0.101275 -0.007902 -1.000000
vertex 0.100469 -0.004843 -1.000000
vertex 0.100053 -0.001644 -1.000000
endloop
endfacet
facet normal 0.000000 0.000018 -1.000000
outer loop
vertex 0.100053 -0.001644 -1.000000
vertex 0.100053 0.001644 -1.000000
vertex 0.100469 0.004843 -1.000000
endloop
endfacet
facet normal 0.000000 -0.000039 -1.000000
outer loop
vertex 0.100469 0.004843 -1.000000
vertex 0.101275 0.007902 -1.000000
vertex 0.102444 0.010795 -1.000000
endloop
endfacet
facet normal 0.000000 -0.000093 -1.000000
outer loop
vertex 0.102444 0.010795 -1.000000
vertex 0.103952 0.013495 -1.000000
vertex 0.105770 0.015976 -1.000000
endloop
endfacet
facet normal 0.000000 -0.000109 -1.000000
outer loop
vertex 0.105770 0.015976 -1.000000
vertex 0.107873 0.018212 -1.000000
vertex 0.110235 0.020176 -1.000000
endloop
endfacet
facet normal 0.000000 -0.000141 -1.000000
outer loop
vertex 0.110235 0.020176 -1.000000
vertex 0.112829 0.021843 -1.000000
vertex 0.115629 0.023184 -1.000000
endloop
endfacet
facet normal 0.000000 0.000000 -1.000000
outer loop
vertex 0.115629 0.023184 -1.000000
vertex 0.118608 0.024176 -1.000000
vertex 0.121741 0.024789 -1.000000
endloop
endfacet
facet normal 0.000000 -0.000142 -1.000000
outer loop
vertex 0.121741 0.024789 -1.000000
vertex 0.125000 0.025000 -1.000000
vertex 0.128259 0.024789 -1.000000
endloop
endfacet
facet normal 0.000000 0.000146 -1.000000
outer loop
vertex 0.128259 0.024789 -1.000000
vertex 0.131391 0.024176 -1.000000
vertex 0.134371 0.023184 -1.000000
endloop
endfacet
facet normal 0.000000 -0.000141 -1.000000
outer loop
vertex 0.134371 0.023184 -1.000000
vertex 0.137171 0.021843 -1.000000
vertex 0.139765 0.020176 -1.000000
endloop
endfacet
facet normal 0.000000 -0.000109 -1.000000
outer loop
vertex 0.139765 0.020176 -1.000000
vertex 0.142127 0.018212 -1.000000
vertex 0.144230 0.015976 -1.000000
endloop
endfacet
facet normal 0.000000 0.000000 -1.000000
outer loop
vertex 0.144230 0.015976 -1.000000
vertex 0.146048 0.013495 -1.000000
vertex 0.147556 0.010795 -1.000000
endloop
endfacet
facet normal 0.000000 -0.000056 -1.000000
outer loop
vertex 0.147556 0.010795 -1.000000
vertex 0.148725 0.007902 -1.000000
vertex 0.149531 0.004843 -1.000000
endloop
endfacet
facet normal 0.000000 0.000007 -1.000000
outer loop
vertex 0.149531 0.004843 -1.000000
vertex 0.149947 -0.001644 -1.000000
vertex 0.148725 -0.007902 -1.000000
endloop
endfacet
facet normal 0.000000 0.000000 -1.000000
outer loop
vertex 0.148725 -0.007902 -1.000000
vertex 0.146048 -0.013495 -1.000000
vertex 0.142127 -0.018212 -1.000000
endloop
endfacet
facet normal 0.000000 0.000031 -1.000000
outer loop
vertex 0.142127 -0.018212 -1.000000
vertex 0.137171 -0.021843 -1.000000
vertex 0.131392 -0.024176 -1.000000
endloop
endfacet
facet normal 0.000000 0.000072 -1.000000
outer loop
vertex 0.131392 -0.024176 -1.000000
vertex 0.125000 -0.025000 -1.000000
vertex 0.118609 -0.024176 -1.000000
endloop
endfacet
facet normal 0.000000 0.000031 -1.000000
outer loop
vertex 0.118609 -0.024176 -1.000000
vertex 0.112829 -0.021843 -1.000000
vertex 0.107873 -0.018212 -1.000000
endloop
endfacet
facet normal 0.000000 0.000000 -1.000000
outer loop
vertex 0.107873 -0.018212 -1.000000
vertex 0.103952 -0.013495 -1.000000
vertex 0.101275 -0.007902 -1.000000
endloop
endfacet
facet normal -0.000089 0.000000 -1.000000
outer loop
vertex 0.101275 -0.007902 -1.000000
vertex 0.100053 -0.001644 -1.000000
vertex 0.100469 0.004843 -1.000000
endloop
endfacet
facet normal -0.000097 0.000033 -1.000000
outer loop
vertex 0.100469 0.004843 -1.000000
vertex 0.102444 0.010795 -1.000000
vertex 0.105770 0.015976 -1.000000
endloop
endfacet
facet normal 0.000000 0.000064 -1.000000
outer loop
vertex 0.105770 0.015976 -1.000000
vertex 0.110235 0.020176 -1.000000
vertex 0.115629 0.023184 -1.000000
endloop
endfacet
facet normal 0.000000 -0.000035 -1.000000
outer loop
vertex 0.115629 0.023184 -1.000000
vertex 0.121741 0.024789 -1.000000
vertex 0.128259 0.024789 -1.000000
endloop
endfacet
facet normal -0.000096 -0.000071 -1.000000
outer loop
vertex 0.128259 0.024789 -1.000000
vertex 0.134371 0.023184 -1.000000
vertex 0.139765 0.020176 -1.000000
endloop
endfacet
facet normal 0.000000 -0.000022 -1.000000
outer loop
vertex 0.139765 0.020176 -1.000000
vertex 0.144230 0.015976 -1.000000
vertex 0.147556 0.010795 -1.000000
endloop
endfacet
facet normal 0.000062 0.000002 -1.000000
outer loop
vertex 0.147556 0.010795 -1.000000
vertex 0.149531 0.004843 -1.000000
vertex 0.148725 -0.007902 -1.000000
endloop
endfacet
facet normal 0.000000 0.000006 -1.000000
outer loop
vertex 0.148725 -0.007902 -1.000000
vertex 0.142127 -0.018212 -1.000000
vertex 0.131392 -0.024176 -1.000000
endloop
endfacet
facet normal 0.000000 -0.000010 -1.000000
outer loop
vertex 0.131392 -0.024176 -1.000000
vertex 0.118609 -0.024176 -1.000000
vertex 0.107873 -0.018212 -1.000000
endloop
endfacet
facet normal 0.000025 0.000000 -1.000000
outer loop
vertex 0.107873 -0.018212 -1.000000
vertex 0.101275 -0.007902 -1.000000
vertex 0.100469 0.004843 -1.000000
endloop
endfacet
facet normal 0.000000 0.000000 -1.000000
outer loop
vertex 0.100469 0.004843 -1.000000
vertex 0.105770 0.015976 -1.000000
vertex 0.115629 0.023184 -1.000000
endloop
endfacet
facet normal 0.000012 0.000009 -1.000000
outer loop
vertex 0.115629 0.023184 -1.000000
vertex 0.128259 0.024789 -1.000000
vertex 0.139765 0.020176 -1.000000
endloop
endfacet
facet normal 0.000000 -0.000001 -1.000000
outer loop
vertex 0.139765 0.020176 -1.000000
vertex 0.147556 0.010795 -1.000000
vertex 0.148725 -0.007902 -1.000000
endloop
endfacet
facet normal 0.000000 -0.000005 -1.000000
outer loop
vertex 0.148725 -0.007902 -1.000000
vertex 0.131392 -0.024176 -1.000000
vertex 0.107873 -0.018212 -1.000000
endloop
endfacet
facet normal -0.000008 0.000000 -1.000000
outer loop
vertex 0.107873 -0.018212 -1.000000
vertex 0.100469 0.004843 -1.000000
vertex 0.115629 0.023184 -1.000000
endloop
endfacet
facet normal 0.000000 0.000003 -1.000000
outer loop
vertex 0.115629 0.023184 -1.000000
vertex 0.139765 0.020176 -1.000000
vertex 0.148725 -0.007902 -1.000000
endloop
endfacet
facet normal 0.000000 0.000000 -1.000000
outer loop
vertex 0.148725 -0.007902 -1.000000
vertex 0.107873 -0.018212 -1.000000
vertex 0.115629 0.023184 -1.000000
endloop
endfacet
facet normal -0.032334 0.999477 0.000000
outer loop
vertex 0.123356 0.024947 0.000000
vertex 0.125000 0.025000 0.000000
vertex 0.125000 0.025000 -1.000000
endloop
endfacet
facet normal -0.032334 0.999477 0.000000
outer loop
vertex 0.123356 0.024947 0.000000
vertex 0.125000 0.025000 -1.000000
vertex 0.123356 0.024947 -1.000000
endloop
endfacet
facet normal 0.032334 0.999477 0.000000
outer loop
vertex 0.125000 0.025000 0.000000
vertex 0.126644 0.024947 0.000000
vertex 0.126644 0.024947 -1.000000
endloop
endfacet
facet normal 0.032334 0.999477 0.000000
outer loop
vertex 0.125000 0.025000 0.000000
vertex 0.126644 0.024947 -1.000000
vertex 0.125000 0.025000 -1.000000
endloop
endfacet
facet normal -0.096940 0.995290 0.000000
outer loop
vertex 0.121741 0.024789 0.000000
vertex 0.123356 0.024947 0.000000
vertex 0.123356 0.024947 -1.000000
endloop
endfacet
facet normal -0.096939 0.995290 0.000000
outer loop
vertex 0.121741 0.024789 0.000000
vertex 0.123356 0.024947 -1.000000
vertex 0.121741 0.024789 -1.000000
endloop
endfacet
facet normal 0.096939 0.995290 0.000000
outer loop
vertex 0.126644 0.024947 0.000000
vertex 0.128259 0.024789 0.000000
vertex 0.128259 0.024789 -1.000000
endloop
endfacet
facet normal 0.096942 0.995290 0.000000
outer loop
vertex 0.126644 0.024947 0.000000
vertex 0.128259 0.024789 -1.000000
vertex 0.126644 0.024947 -1.000000
endloop
endfacet
facet normal -0.160912 0.986969 0.000000
outer loop
vertex 0.120157 0.024531 0.000000
vertex 0.121741 0.024789 0.000000
vertex 0.121741 0.024789 -1.000000
endloop
endfacet
facet normal -0.160912 0.986969 0.000000
outer loop
vertex 0.120157 0.024531 0.000000
vertex 0.121741 0.024789 -1.000000
vertex 0.120157 0.024531 -1.000000
endloop
endfacet
facet normal 0.160911 0.986969 0.000000
outer loop
vertex 0.128259 0.024789 0.000000
vertex 0.129843 0.024531 0.000000
vertex 0.129843 0.024531 -1.000000
endloop
endfacet
facet normal 0.160912 0.986969 0.000000
outer loop
vertex 0.128259 0.024789 0.000000
vertex 0.129843 0.024531 -1.000000
vertex 0.128259 0.024789 -1.000000
endloop
endfacet
facet normal -0.223887 0.974615 0.000000
outer loop
vertex 0.118608 0.024176 0.000000
vertex 0.120157 0.024531 0.000000
vertex 0.120157 0.024531 -1.000000
endloop
endfacet
facet normal -0.223889 0.974615 0.000000
outer loop
vertex 0.118608 0.024176 0.000000
vertex 0.120157 0.024531 -1.000000
vertex 0.118608 0.024176 -1.000000
endloop
endfacet
facet normal 0.223887 0.974615 0.000000
outer loop
vertex 0.129843 0.024531 0.000000
vertex 0.131391 0.024176 0.000000
vertex 0.131391 0.024176 -1.000000
endloop
endfacet
facet normal 0.223889 0.974615 0.000000
outer loop
vertex 0.129843 0.024531 0.000000
vertex 0.131391 0.024176 -1.000000
vertex 0.129843 0.024531 -1.000000
endloop
endfacet
facet normal -0.285551 0.958364 0.000000
outer loop
vertex 0.117098 0.023725 0.000000
vertex 0.118608 0.024176 0.000000
vertex 0.118608 0.024176 -1.000000
endloop
endfacet
facet normal -0.285551 0.958364 0.000000
outer loop
vertex 0.117098 0.023725 0.000000
vertex 0.118608 0.024176 -1.000000
vertex 0.117098 0.023725 -1.000000
endloop
endfacet
facet normal 0.285553 0.958363 0.000000
outer loop
vertex 0.131391 0.024176 0.000000
vertex 0.132902 0.023725 0.000000
vertex 0.132902 0.023725 -1.000000
endloop
endfacet
facet normal 0.285546 0.958365 0.000000
outer loop
vertex 0.131391 0.024176 0.000000
vertex 0.132902 0.023725 -1.000000
vertex 0.131391 0.024176 -1.000000
endloop
endfacet
facet normal -0.345630 0.938371 0.000000
outer loop
vertex 0.115629 0.023184 0.000000
vertex 0.117098 0.023725 0.000000
vertex 0.117098 0.023725 -1.000000
endloop
endfacet
facet normal -0.345627 0.938372 0.000000
outer loop
vertex 0.115629 0.023184 0.000000
vertex 0.117098 0.023725 -1.000000
vertex 0.115629 0.023184 -1.000000
endloop
endfacet
facet normal 0.345627 0.938372 0.000000
outer loop
vertex 0.132902 0.023725 0.000000
vertex 0.134371 0.023184 0.000000
vertex 0.134371 0.023184 -1.000000
endloop
endfacet
facet normal 0.345627 0.938372 0.000000
outer loop
vertex 0.132902 0.023725 0.000000
vertex 0.134371 0.023184 -1.000000
vertex 0.132902 0.023725 -1.000000
endloop
endfacet
facet normal -0.403894 0.914806 0.000000
outer loop
vertex 0.114205 0.022556 0.000000
vertex 0.115629 0.023184 0.000000
vertex 0.115629 0.023184 -1.000000
endloop
endfacet
facet normal -0.403894 0.914806 0.000000
outer loop
vertex 0.114205 0.022556 0.000000
vertex 0.115629 0.023184 -1.000000
vertex 0.114205 0.022556 -1.000000
endloop
endfacet
facet normal 0.403891 0.914807 0.000000
outer loop
vertex 0.134371 0.023184 0.000000
vertex 0.135795 0.022556 0.000000
vertex 0.135795 0.022556 -1.000000
endloop
endfacet
facet normal 0.403901 0.914803 0.000000
outer loop
vertex 0.134371 0.023184 0.000000
vertex 0.135795 0.022556 -1.000000
vertex 0.134371 0.023184 -1.000000
endloop
endfacet
facet normal -0.460166 0.887833 0.000000
outer loop
vertex 0.112829 0.021843 0.000000
vertex 0.114205 0.022556 0.000000
vertex 0.114205 0.022556 -1.000000
endloop
endfacet
facet normal -0.460166 0.887833 0.000000
outer loop
vertex 0.112829 0.021843 0.000000
vertex 0.114205 0.022556 -1.000000
vertex 0.112829 0.021843 -1.000000
endloop
endfacet
facet normal 0.460170 0.887831 0.000000
outer loop
vertex 0.135795 0.022556 0.000000
vertex 0.137171 0.021843 0.000000
vertex 0.137171 0.021843 -1.000000
endloop
endfacet
facet normal 0.460158 0.887837 0.000000
outer loop
vertex 0.135795 0.022556 0.000000
vertex 0.137171 0.021843 -1.000000
vertex 0.135795 0.022556 -1.000000
endloop
endfacet
facet normal -0.514290 0.857617 0.000000
outer loop
vertex 0.111505 0.021048 0.000000
vertex 0.112829 0.021843 0.000000
vertex 0.112829 0.021843 -1.000000
endloop
endfacet
facet normal -0.514285 0.857619 0.000000
outer loop
vertex 0.111505 0.021048 0.000000
vertex 0.112829 0.021843 -1.000000
vertex 0.111505 0.021048 -1.000000
endloop
endfacet
facet normal 0.514290 0.857617 0.000000
outer loop
vertex 0.137171 0.021843 0.000000
vertex 0.138495 0.021048 0.000000
vertex 0.138495 0.021048 -1.000000
endloop
endfacet
facet normal 0.514290 0.857617 0.000000
outer loop
vertex 0.137171 0.021843 0.000000
vertex 0.138495 0.021048 -1.000000
vertex 0.137171 0.021843 -1.000000
endloop
endfacet
facet normal -0.566139 0.824310 0.000000
outer loop
vertex 0.110235 0.020176 0.000000
vertex 0.111505 0.021048 0.000000
vertex 0.111505 0.021048 -1.000000
endloop
endfacet
facet normal -0.566143 0.824307 0.000000
outer loop
vertex 0.110235 0.020176 0.000000
vertex 0.111505 0.021048 -1.000000
vertex 0.110235 0.020176 -1.000000
endloop
endfacet
facet normal 0.566144 0.824307 0.000000
outer loop
vertex 0.138495 0.021048 0.000000
vertex 0.139765 0.020176 0.000000
vertex 0.139765 0.020176 -1.000000
endloop
endfacet
facet normal 0.566139 0.824310 0.000000
outer loop
vertex 0.138495 0.021048 0.000000
vertex 0.139765 0.020176 -1.000000
vertex 0.138495 0.021048 -1.000000
endloop
endfacet
facet normal -0.615620 0.788043 0.000000
outer loop
vertex 0.109024 0.019230 0.000000
vertex 0.110235 0.020176 0.000000
vertex 0.110235 0.020176 -1.000000
endloop
endfacet
facet normal -0.615625 0.788039 0.000000
outer loop
vertex 0.109024 0.019230 0.000000
vertex 0.110235 0.020176 -1.000000
vertex 0.109024 0.019230 -1.000000
endloop
endfacet
facet normal 0.615620 0.788043 0.000000
outer loop
vertex 0.139765 0.020176 0.000000
vertex 0.140976 0.019230 0.000000
vertex 0.140976 0.019230 -1.000000
endloop
endfacet
facet normal 0.615615 0.788047 0.000000
outer loop
vertex 0.139765 0.020176 0.000000
vertex 0.140976 0.019230 -1.000000
vertex 0.139765 0.020176 -1.000000
endloop
endfacet
facet normal -0.662642 0.748936 0.000000
outer loop
vertex 0.107873 0.018212 0.000000
vertex 0.109024 0.019230 0.000000
vertex 0.109024 0.019230 -1.000000
endloop
endfacet
facet normal -0.662637 0.748941 0.000000
outer loop
vertex 0.107873 0.018212 0.000000
vertex 0.109024 0.019230 -1.000000
vertex 0.107873 0.018212 -1.000000
endloop
endfacet
facet normal 0.662637 0.748941 0.000000
outer loop
vertex 0.140976 0.019230 0.000000
vertex 0.142127 0.018212 0.000000
vertex 0.142127 0.018212 -1.000000
endloop
endfacet
facet normal 0.662637 0.748941 0.000000
outer loop
vertex 0.140976 0.019230 0.000000
vertex 0.142127 0.018212 -1.000000
vertex 0.140976 0.019230 -1.000000
endloop
endfacet
facet normal -0.707110 0.707103 0.000000
outer loop
vertex 0.106788 0.017127 0.000000
vertex 0.107873 0.018212 0.000000
vertex 0.107873 0.018212 -1.000000
endloop
endfacet
facet normal -0.707105 0.707109 0.000000
outer loop
vertex 0.106788 0.017127 0.000000
vertex 0.107873 0.018212 -1.000000
vertex 0.106788 0.017127 -1.000000
endloop
endfacet
facet normal 0.707101 0.707113 0.000000
outer loop
vertex 0.142127 0.018212 0.000000
vertex 0.143212 0.017127 0.000000
vertex 0.143212 0.017127 -1.000000
endloop
endfacet
facet normal 0.707110 0.707103 0.000000
outer loop
vertex 0.142127 0.018212 0.000000
vertex 0.143212 0.017127 -1.000000
vertex 0.142127 0.018212 -1.000000
endloop
endfacet
facet normal -0.748938 0.662640 0.000000
outer loop
vertex 0.105770 0.015976 0.000000
vertex 0.106788 0.017127 0.000000
vertex 0.106788 0.017127 -1.000000
endloop
endfacet
facet normal -0.748943 0.662634 0.000000
outer loop
vertex 0.105770 0.015976 0.000000
vertex 0.106788 0.017127 -1.000000
vertex 0.105770 0.015976 -1.000000
endloop
endfacet
facet normal 0.748933 0.662646 0.000000
outer loop
vertex 0.143212 0.017127 0.000000
vertex 0.144230 0.015976 0.000000
vertex 0.144230 0.015976 -1.000000
endloop
endfacet
facet normal 0.748942 0.662635 0.000000
outer loop
vertex 0.143212 0.017127 0.000000
vertex 0.144230 0.015976 -1.000000
vertex 0.143212 0.017127 -1.000000
endloop
endfacet
facet normal -0.788040 0.615625 0.000000
outer loop
vertex 0.104824 0.014765 0.000000
vertex 0.105770 0.015976 0.000000
vertex 0.105770 0.015976 -1.000000
endloop
endfacet
facet normal -0.788044 0.615619 0.000000
outer loop
vertex 0.104824 0.014765 0.000000
vertex 0.105770 0.015976 -1.000000
vertex 0.104824 0.014765 -1.000000
endloop
endfacet
facet normal 0.788049 0.615613 0.000000
outer loop
vertex 0.144230 0.015976 0.000000
vertex 0.145176 0.014765 0.000000
vertex 0.145176 0.014765 -1.000000
endloop
endfacet
facet normal 0.788039 0.615625 0.000000
outer loop
vertex 0.144230 0.015976 0.000000
vertex 0.145176 0.014765 -1.000000
vertex 0.144230 0.015976 -1.000000
endloop
endfacet
facet normal 0.824305 0.566147 0.000000
outer loop
vertex 0.145176 0.014765 0.000000
vertex 0.146048 0.013495 0.000000
vertex 0.146048 0.013495 -1.000000
endloop
endfacet
facet normal 0.824314 0.566133 0.000000
outer loop
vertex 0.145176 0.014765 0.000000
vertex 0.146048 0.013495 -1.000000
vertex 0.145176 0.014765 -1.000000
endloop
endfacet
facet normal -0.824309 0.566140 0.000000
outer loop
vertex 0.103952 0.013495 0.000000
vertex 0.104824 0.014765 0.000000
vertex 0.104824 0.014765 -1.000000
endloop
endfacet
facet normal -0.824309 0.566140 0.000000
outer loop
vertex 0.103952 0.013495 0.000000
vertex 0.104824 0.014765 -1.000000
vertex 0.103952 0.013495 -1.000000
endloop
endfacet
facet normal 0.857617 0.514289 0.000000
outer loop
vertex 0.146048 0.013495 0.000000
vertex 0.146843 0.012171 0.000000
vertex 0.146843 0.012171 -1.000000
endloop
endfacet
facet normal 0.857617 0.514289 0.000000
outer loop
vertex 0.146048 0.013495 0.000000
vertex 0.146843 0.012171 -1.000000
vertex 0.146048 0.013495 -1.000000
endloop
endfacet
facet normal -0.857617 0.514289 0.000000
outer loop
vertex 0.103157 0.012171 0.000000
vertex 0.103952 0.013495 0.000000
vertex 0.103952 0.013495 -1.000000
endloop
endfacet
facet normal -0.857617 0.514289 0.000000
outer loop
vertex 0.103157 0.012171 0.000000
vertex 0.103952 0.013495 -1.000000
vertex 0.103157 0.012171 -1.000000
endloop
endfacet
facet normal 0.887839 0.460155 0.000000
outer loop
vertex 0.146843 0.012171 0.000000
vertex 0.147556 0.010795 0.000000
vertex 0.147556 0.010795 -1.000000
endloop
endfacet
facet normal 0.887831 0.460170 0.000000
outer loop
vertex 0.146843 0.012171 0.000000
vertex 0.147556 0.010795 -1.000000
vertex 0.146843 0.012171 -1.000000
endloop
endfacet
facet normal -0.887835 0.460162 0.000000
outer loop
vertex 0.102444 0.010795 0.000000
vertex 0.103157 0.012171 0.000000
vertex 0.103157 0.012171 -1.000000
endloop
endfacet
facet normal -0.887830 0.460171 0.000000
outer loop
vertex 0.102444 0.010795 0.000000
vertex 0.103157 0.012171 -1.000000
vertex 0.102444 0.010795 -1.000000
endloop
endfacet
facet normal 0.914805 0.403896 0.000000
outer loop
vertex 0.147556 0.010795 0.000000
vertex 0.148184 0.009371 0.000000
vertex 0.148184 0.009371 -1.000000
endloop
endfacet
facet normal 0.914805 0.403896 0.000000
outer loop
vertex 0.147556 0.010795 0.000000
vertex 0.148184 0.009371 -1.000000
vertex 0.147556 0.010795 -1.000000
endloop
endfacet
facet normal -0.914805 0.403895 0.000000
outer loop
vertex 0.101816 0.009371 0.000000
vertex 0.102444 0.010795 0.000000
vertex 0.102444 0.010795 -1.000000
endloop
endfacet
facet normal -0.914805 0.403895 0.000000
outer loop
vertex 0.101816 0.009371 0.000000
vertex 0.102444 0.010795 -1.000000
vertex 0.101816 0.009371 -1.000000
endloop
endfacet
facet normal 0.938370 0.345633 0.000000
outer loop
vertex 0.148184 0.009371 0.000000
vertex 0.148725 0.007902 0.000000
vertex 0.148725 0.007902 -1.000000
endloop
endfacet
facet normal 0.938376 0.345617 0.000000
outer loop
vertex 0.148184 0.009371 0.000000
vertex 0.148725 0.007902 -1.000000
vertex 0.148184 0.009371 -1.000000
endloop
endfacet
facet normal -0.938370 0.345633 0.000000
outer loop
vertex 0.101275 0.007902 0.000000
vertex 0.101816 0.009371 0.000000
vertex 0.101816 0.009371 -1.000000
endloop
endfacet
facet normal -0.938373 0.345623 0.000000
outer loop
vertex 0.101275 0.007902 0.000000
vertex 0.101816 0.009371 -1.000000
vertex 0.101275 0.007902 -1.000000
endloop
endfacet
facet normal 0.958363 0.285552 0.000000
outer loop
vertex 0.148725 0.007902 0.000000
vertex 0.149176 0.006392 0.000000
vertex 0.149176 0.006392 -1.000000
endloop
endfacet
facet normal 0.958365 0.285545 0.000000
outer loop
vertex 0.148725 0.007902 0.000000
vertex 0.149176 0.006392 -1.000000
vertex 0.148725 0.007902 -1.000000
endloop
endfacet
facet normal -0.958363 0.285552 0.000000
outer loop
vertex 0.100824 0.006392 0.000000
vertex 0.101275 0.007902 0.000000
vertex 0.101275 0.007902 -1.000000
endloop
endfacet
facet normal -0.958363 0.285554 0.000000
outer loop
vertex 0.100824 0.006392 0.000000
vertex 0.101275 0.007902 -1.000000
vertex 0.100824 0.006392 -1.000000
endloop
endfacet
facet normal 0.974617 0.223878 0.000000
outer loop
vertex 0.149176 0.006392 0.000000
vertex 0.149531 0.004843 0.000000
vertex 0.149531 0.004843 -1.000000
endloop
endfacet
facet normal 0.974613 0.223896 0.000000
outer loop
vertex 0.149176 0.006392 0.000000
vertex 0.149531 0.004843 -1.000000
vertex 0.149176 0.006392 -1.000000
endloop
endfacet
facet normal -0.974615 0.223887 0.000000
outer loop
vertex 0.100469 0.004843 0.000000
vertex 0.100824 0.006392 0.000000
vertex 0.100824 0.006392 -1.000000
endloop
endfacet
facet normal -0.974615 0.223885 0.000000
outer loop
vertex 0.100469 0.004843 0.000000
vertex 0.100824 0.006392 -1.000000
vertex 0.100469 0.004843 -1.000000
endloop
endfacet
facet normal 0.986968 0.160918 0.000000
outer loop
vertex 0.149531 0.004843 0.000000
vertex 0.149789 0.003259 0.000000
vertex 0.149789 0.003259 -1.000000
endloop
endfacet
facet normal 0.986970 0.160907 0.000000
outer loop
vertex 0.149531 0.004843 0.000000
vertex 0.149789 0.003259 -1.000000
vertex 0.149531 0.004843 -1.000000
endloop
endfacet
facet normal -0.986969 0.160909 0.000000
outer loop
vertex 0.100211 0.003259 0.000000
vertex 0.100469 0.004843 0.000000
vertex 0.100469 0.004843 -1.000000
endloop
endfacet
facet normal -0.986968 0.160919 0.000000
outer loop
vertex 0.100211 0.003259 0.000000
vertex 0.100469 0.004843 -1.000000
vertex 0.100211 0.003259 -1.000000
endloop
endfacet
facet normal 0.995291 0.096935 0.000000
outer loop
vertex 0.149789 0.003259 0.000000
vertex 0.149947 0.001644 0.000000
vertex 0.149947 0.001644 -1.000000
endloop
endfacet
facet normal 0.995289 0.096953 0.000000
outer loop
vertex 0.149789 0.003259 0.000000
vertex 0.149947 0.001644 -1.000000
vertex 0.149789 0.003259 -1.000000
endloop
endfacet
facet normal -0.995291 0.096935 0.000000
outer loop
vertex 0.100053 0.001644 0.000000
vertex 0.100211 0.003259 0.000000
vertex 0.100211 0.003259 -1.000000
endloop
endfacet
facet normal -0.995290 0.096944 0.000000
outer loop
vertex 0.100053 0.001644 0.000000
vertex 0.100211 0.003259 -1.000000
vertex 0.100053 0.001644 -1.000000
endloop
endfacet
facet normal 0.999477 0.032328 0.000000
outer loop
vertex 0.149947 0.001644 0.000000
vertex 0.150000 -0.000000 0.000000
vertex 0.150000 -0.000000 -1.000000
endloop
endfacet
facet normal 0.999477 0.032346 0.000000
outer loop
vertex 0.149947 0.001644 0.000000
vertex 0.150000 -0.000000 -1.000000
vertex 0.149947 0.001644 -1.000000
endloop
endfacet
facet normal -0.999477 0.032337 0.000000
outer loop
vertex 0.100000 0.000000 0.000000
vertex 0.100053 0.001644 0.000000
vertex 0.100053 0.001644 -1.000000
endloop
endfacet
facet normal -0.999477 0.032336 0.000000
outer loop
vertex 0.100000 0.000000 0.000000
vertex 0.100053 0.001644 -1.000000
vertex 0.100000 0.000000 -1.000000
endloop
endfacet
facet normal -0.999477 -0.032337 0.000000
outer loop
vertex 0.100053 -0.001644 0.000000
vertex 0.100000 0.000000 0.000000
vertex 0.100000 0.000000 -1.000000
endloop
endfacet
facet normal -0.999477 -0.032328 0.000000
outer loop
vertex 0.100053 -0.001644 0.000000
vertex 0.100000 0.000000 -1.000000
vertex 0.100053 -0.001644 -1.000000
endloop
endfacet
facet normal 0.999477 -0.032328 0.000000
outer loop
vertex 0.150000 -0.000000 0.000000
vertex 0.149947 -0.001644 0.000000
vertex 0.149947 -0.001644 -1.000000
endloop
endfacet
facet normal 0.999477 -0.032328 0.000000
outer loop
vertex 0.150000 -0.000000 0.000000
vertex 0.149947 -0.001644 -1.000000
vertex 0.150000 -0.000000 -1.000000
endloop
endfacet
facet normal 0.995291 -0.096935 0.000000
outer loop
vertex 0.149947 -0.001644 0.000000
vertex 0.149789 -0.003259 0.000000
vertex 0.149789 -0.003259 -1.000000
endloop
endfacet
facet normal 0.995289 -0.096953 0.000000
outer loop
vertex 0.149947 -0.001644 0.000000
vertex 0.149789 -0.003259 -1.000000
vertex 0.149947 -0.001644 -1.000000
endloop
endfacet
facet normal -0.995291 -0.096935 0.000000
outer loop
vertex 0.100211 -0.003259 0.000000
vertex 0.100053 -0.001644 0.000000
vertex 0.100053 -0.001644 -1.000000
endloop
endfacet
facet normal -0.995290 -0.096944 0.000000
outer loop
vertex 0.100211 -0.003259 0.000000
vertex 0.100053 -0.001644 -1.000000
vertex 0.100211 -0.003259 -1.000000
endloop
endfacet
facet normal 0.986968 -0.160918 0.000000
outer loop
vertex 0.149789 -0.003259 0.000000
vertex 0.149531 -0.004843 0.000000
vertex 0.149531 -0.004843 -1.000000
endloop
endfacet
facet normal 0.986971 -0.160900 0.000000
outer loop
vertex 0.149789 -0.003259 0.000000
vertex 0.149531 -0.004843 -1.000000
vertex 0.149789 -0.003259 -1.000000
endloop
endfacet
facet normal -0.986969 -0.160909 0.000000
outer loop
vertex 0.100469 -0.004843 0.000000
vertex 0.100211 -0.003259 0.000000
vertex 0.100211 -0.003259 -1.000000
endloop
endfacet
facet normal -0.986968 -0.160918 0.000000
outer loop
vertex 0.100469 -0.004843 0.000000
vertex 0.100211 -0.003259 -1.000000
vertex 0.100469 -0.004843 -1.000000
endloop
endfacet
facet normal 0.974617 -0.223878 0.000000
outer loop
vertex 0.149531 -0.004843 0.000000
vertex 0.149176 -0.006392 0.000000
vertex 0.149176 -0.006392 -1.000000
endloop
endfacet
facet normal 0.974611 -0.223903 0.000000
outer loop
vertex 0.149531 -0.004843 0.000000
vertex 0.149176 -0.006392 -1.000000
vertex 0.149531 -0.004843 -1.000000
endloop
endfacet
facet normal -0.974615 -0.223887 0.000000
outer loop
vertex 0.100824 -0.006392 0.000000
vertex 0.100469 -0.004843 0.000000
vertex 0.100469 -0.004843 -1.000000
endloop
endfacet
facet normal -0.974615 -0.223885 0.000000
outer loop
vertex 0.100824 -0.006392 0.000000
vertex 0.100469 -0.004843 -1.000000
vertex 0.100824 -0.006392 -1.000000
endloop
endfacet
facet normal 0.958363 -0.285552 0.000000
outer loop
vertex 0.149176 -0.006392 0.000000
vertex 0.148725 -0.007902 0.000000
vertex 0.148725 -0.007902 -1.000000
endloop
endfacet
facet normal 0.958365 -0.285545 0.000000
outer loop
vertex 0.149176 -0.006392 0.000000
vertex 0.148725 -0.007902 -1.000000
vertex 0.149176 -0.006392 -1.000000
endloop
endfacet
facet normal -0.958363 -0.285552 0.000000
outer loop
vertex 0.101275 -0.007902 0.000000
vertex 0.100824 -0.006392 0.000000
vertex 0.100824 -0.006392 -1.000000
endloop
endfacet
facet normal -0.958363 -0.285554 0.000000
outer loop
vertex 0.101275 -0.007902 0.000000
vertex 0.100824 -0.006392 -1.000000
vertex 0.101275 -0.007902 -1.000000
endloop
endfacet
facet normal 0.938370 -0.345633 0.000000
outer loop
vertex 0.148725 -0.007902 0.000000
vertex 0.148184 -0.009371 0.000000
vertex 0.148184 -0.009371 -1.000000
endloop
endfacet
facet normal 0.938376 -0.345617 0.000000
outer loop
vertex 0.148725 -0.007902 0.000000
vertex 0.148184 -0.009371 -1.000000
vertex 0.148725 -0.007902 -1.000000
endloop
endfacet
facet normal -0.938370 -0.345633 0.000000
outer loop
vertex 0.101816 -0.009371 0.000000
vertex 0.101275 -0.007902 0.000000
vertex 0.101275 -0.007902 -1.000000
endloop
endfacet
facet normal -0.938373 -0.345625 0.000000
outer loop
vertex 0.101816 -0.009371 0.000000
vertex 0.101275 -0.007902 -1.000000
vertex 0.101816 -0.009371 -1.000000
endloop
endfacet
facet normal 0.914805 -0.403896 0.000000
outer loop
vertex 0.148184 -0.009371 0.000000
vertex 0.147556 -0.010795 0.000000
vertex 0.147556 -0.010795 -1.000000
endloop
endfacet
facet normal 0.914805 -0.403896 0.000000
outer loop
vertex 0.148184 -0.009371 0.000000
vertex 0.147556 -0.010795 -1.000000
vertex 0.148184 -0.009371 -1.000000
endloop
endfacet
facet normal -0.914805 -0.403896 0.000000
outer loop
vertex 0.102444 -0.010795 0.000000
vertex 0.101816 -0.009371 0.000000
vertex 0.101816 -0.009371 -1.000000
endloop
endfacet
facet normal -0.914806 -0.403894 0.000000
outer loop
vertex 0.102444 -0.010795 0.000000
vertex 0.101816 -0.009371 -1.000000
vertex 0.102444 -0.010795 -1.000000
endloop
endfacet
facet normal 0.887839 -0.460155 0.000000
outer loop
vertex 0.147556 -0.010795 0.000000
vertex 0.146843 -0.012171 0.000000
vertex 0.146843 -0.012171 -1.000000
endloop
endfacet
facet normal 0.887831 -0.460170 0.000000
outer loop
vertex 0.147556 -0.010795 0.000000
vertex 0.146843 -0.012171 -1.000000
vertex 0.147556 -0.010795 -1.000000
endloop
endfacet
facet normal -0.887835 -0.460162 0.000000
outer loop
vertex 0.103157 -0.012171 0.000000
vertex 0.102444 -0.010795 0.000000
vertex 0.102444 -0.010795 -1.000000
endloop
endfacet
facet normal -0.887830 -0.460171 0.000000
outer loop
vertex 0.103157 -0.012171 0.000000
vertex 0.102444 -0.010795 -1.000000
vertex 0.103157 -0.012171 -1.000000
endloop
endfacet
facet normal 0.857617 -0.514289 0.000000
outer loop
vertex 0.146843 -0.012171 0.000000
vertex 0.146048 -0.013495 0.000000
vertex 0.146048 -0.013495 -1.000000
endloop
endfacet
facet normal 0.857617 -0.514289 0.000000
outer loop
vertex 0.146843 -0.012171 0.000000
vertex 0.146048 -0.013495 -1.000000
vertex 0.146843 -0.012171 -1.000000
endloop
endfacet
facet normal -0.857617 -0.514289 0.000000
outer loop
vertex 0.103952 -0.013495 0.000000
vertex 0.103157 -0.012171 0.000000
vertex 0.103157 -0.012171 -1.000000
endloop
endfacet
facet normal -0.857617 -0.514289 0.000000
outer loop
vertex 0.103952 -0.013495 0.000000
vertex 0.103157 -0.012171 -1.000000
vertex 0.103952 -0.013495 -1.000000
endloop
endfacet
facet normal 0.824305 -0.566147 0.000000
outer loop
vertex 0.146048 -0.013495 0.000000
vertex 0.145176 -0.014765 0.000000
vertex 0.145176 -0.014765 -1.000000
endloop
endfacet
facet normal 0.824314 -0.566133 0.000000
outer loop
vertex 0.146048 -0.013495 0.000000
vertex 0.145176 -0.014765 -1.000000
vertex 0.146048 -0.013495 -1.000000
endloop
endfacet
facet normal -0.824309 -0.566140 0.000000
outer loop
vertex 0.104824 -0.014765 0.000000
vertex 0.103952 -0.013495 0.000000
vertex 0.103952 -0.013495 -1.000000
endloop
endfacet
facet normal -0.824310 -0.566139 0.000000
outer loop
vertex 0.104824 -0.014765 0.000000
vertex 0.103952 -0.013495 -1.000000
vertex 0.104824 -0.014765 -1.000000
endloop
endfacet
facet normal 0.788049 -0.615613 0.000000
outer loop
vertex 0.145176 -0.014765 0.000000
vertex 0.144230 -0.015976 0.000000
vertex 0.144230 -0.015976 -1.000000
endloop
endfacet
facet normal 0.788040 -0.615625 0.000000
outer loop
vertex 0.145176 -0.014765 0.000000
vertex 0.144230 -0.015976 -1.000000
vertex 0.145176 -0.014765 -1.000000
endloop
endfacet
facet normal -0.788040 -0.615625 0.000000
outer loop
vertex 0.105770 -0.015976 0.000000
vertex 0.104824 -0.014765 0.000000
vertex 0.104824 -0.014765 -1.000000
endloop
endfacet
facet normal -0.788044 -0.615619 0.000000
outer loop
vertex 0.105770 -0.015976 0.000000
vertex 0.104824 -0.014765 -1.000000
vertex 0.105770 -0.015976 -1.000000
endloop
endfacet
facet normal 0.748933 -0.662646 0.000000
outer loop
vertex 0.144230 -0.015976 0.000000
vertex 0.143212 -0.017127 0.000000
vertex 0.143212 -0.017127 -1.000000
endloop
endfacet
facet normal 0.748942 -0.662635 0.000000
outer loop
vertex 0.144230 -0.015976 0.000000
vertex 0.143212 -0.017127 -1.000000
vertex 0.144230 -0.015976 -1.000000
endloop
endfacet
facet normal -0.748938 -0.662640 0.000000
outer loop
vertex 0.106788 -0.017127 0.000000
vertex 0.105770 -0.015976 0.000000
vertex 0.105770 -0.015976 -1.000000
endloop
endfacet
facet normal -0.748943 -0.662634 0.000000
outer loop
vertex 0.106788 -0.017127 0.000000
vertex 0.105770 -0.015976 -1.000000
vertex 0.106788 -0.017127 -1.000000
endloop
endfacet
facet normal 0.707101 -0.707113 0.000000
outer loop
vertex 0.143212 -0.017127 0.000000
vertex 0.142127 -0.018212 0.000000
vertex 0.142127 -0.018212 -1.000000
endloop
endfacet
facet normal 0.707110 -0.707103 0.000000
outer loop
vertex 0.143212 -0.017127 0.000000
vertex 0.142127 -0.018212 -1.000000
vertex 0.143212 -0.017127 -1.000000
endloop
endfacet
facet normal -0.707110 -0.707103 0.000000
outer loop
vertex 0.107873 -0.018212 0.000000
vertex 0.106788 -0.017127 0.000000
vertex 0.106788 -0.017127 -1.000000
endloop
endfacet
facet normal -0.707105 -0.707109 0.000000
outer loop
vertex 0.107873 -0.018212 0.000000
vertex 0.106788 -0.017127 -1.000000
vertex 0.107873 -0.018212 -1.000000
endloop
endfacet
facet normal 0.662637 -0.748941 0.000000
outer loop
vertex 0.142127 -0.018212 0.000000
vertex 0.140976 -0.019230 0.000000
vertex 0.140976 -0.019230 -1.000000
endloop
endfacet
facet normal 0.662637 -0.748941 0.000000
outer loop
vertex 0.142127 -0.018212 0.000000
vertex 0.140976 -0.019230 -1.000000
vertex 0.142127 -0.018212 -1.000000
endloop
endfacet
facet normal -0.662637 -0.748941 0.000000
outer loop
vertex 0.109024 -0.019230 0.000000
vertex 0.107873 -0.018212 0.000000
vertex 0.107873 -0.018212 -1.000000
endloop
endfacet
facet normal -0.662637 -0.748941 0.000000
outer loop
vertex 0.109024 -0.019230 0.000000
vertex 0.107873 -0.018212 -1.000000
vertex 0.109024 -0.019230 -1.000000
endloop
endfacet
facet normal 0.615620 -0.788043 0.000000
outer loop
vertex 0.140976 -0.019230 0.000000
vertex 0.139765 -0.020176 0.000000
vertex 0.139765 -0.020176 -1.000000
endloop
endfacet
facet normal 0.615615 -0.788047 0.000000
outer loop
vertex 0.140976 -0.019230 0.000000
vertex 0.139765 -0.020176 -1.000000
vertex 0.140976 -0.019230 -1.000000
endloop
endfacet
facet normal -0.615620 -0.788043 0.000000
outer loop
vertex 0.110235 -0.020176 0.000000
vertex 0.109024 -0.019230 0.000000
vertex 0.109024 -0.019230 -1.000000
endloop
endfacet
facet normal -0.615620 -0.788043 0.000000
outer loop
vertex 0.110235 -0.020176 0.000000
vertex 0.109024 -0.019230 -1.000000
vertex 0.110235 -0.020176 -1.000000
endloop
endfacet
facet normal 0.566144 -0.824307 0.000000
outer loop
vertex 0.139765 -0.020176 0.000000
vertex 0.138495 -0.021048 0.000000
vertex 0.138495 -0.021048 -1.000000
endloop
endfacet
facet normal 0.566139 -0.824310 0.000000
outer loop
vertex 0.139765 -0.020176 0.000000
vertex 0.138495 -0.021048 -1.000000
vertex 0.139765 -0.020176 -1.000000
endloop
endfacet
facet normal -0.566139 -0.824310 0.000000
outer loop
vertex 0.111505 -0.021048 0.000000
vertex 0.110235 -0.020176 0.000000
vertex 0.110235 -0.020176 -1.000000
endloop
endfacet
facet normal -0.566143 -0.824307 0.000000
outer loop
vertex 0.111505 -0.021048 0.000000
vertex 0.110235 -0.020176 -1.000000
vertex 0.111505 -0.021048 -1.000000
endloop
endfacet
facet normal 0.514290 -0.857617 0.000000
outer loop
vertex 0.138495 -0.021048 0.000000
vertex 0.137171 -0.021843 0.000000
vertex 0.137171 -0.021843 -1.000000
endloop
endfacet
facet normal 0.514290 -0.857617 0.000000
outer loop
vertex 0.138495 -0.021048 0.000000
vertex 0.137171 -0.021843 -1.000000
vertex 0.138495 -0.021048 -1.000000
endloop
endfacet
facet normal -0.514291 -0.857616 0.000000
outer loop
vertex 0.112829 -0.021843 0.000000
vertex 0.111505 -0.021048 0.000000
vertex 0.111505 -0.021048 -1.000000
endloop
endfacet
facet normal -0.514286 -0.857619 0.000000
outer loop
vertex 0.112829 -0.021843 0.000000
vertex 0.111505 -0.021048 -1.000000
vertex 0.112829 -0.021843 -1.000000
endloop
endfacet
facet normal 0.460170 -0.887831 0.000000
outer loop
vertex 0.137171 -0.021843 0.000000
vertex 0.135795 -0.022556 0.000000
vertex 0.135795 -0.022556 -1.000000
endloop
endfacet
facet normal 0.460158 -0.887837 0.000000
outer loop
vertex 0.137171 -0.021843 0.000000
vertex 0.135795 -0.022556 -1.000000
vertex 0.137171 -0.021843 -1.000000
endloop
endfacet
facet normal -0.460167 -0.887832 0.000000
outer loop
vertex 0.114205 -0.022556 0.000000
vertex 0.112829 -0.021843 0.000000
vertex 0.112829 -0.021843 -1.000000
endloop
endfacet
facet normal -0.460163 -0.887834 0.000000
outer loop
vertex 0.114205 -0.022556 0.000000
vertex 0.112829 -0.021843 -1.000000
vertex 0.114205 -0.022556 -1.000000
endloop
endfacet
facet normal 0.403891 -0.914807 0.000000
outer loop
vertex 0.135795 -0.022556 0.000000
vertex 0.134371 -0.023184 0.000000
vertex 0.134371 -0.023184 -1.000000
endloop
endfacet
facet normal 0.403901 -0.914803 0.000000
outer loop
vertex 0.135795 -0.022556 0.000000
vertex 0.134371 -0.023184 -1.000000
vertex 0.135795 -0.022556 -1.000000
endloop
endfacet
facet normal -0.403895 -0.914805 0.000000
outer loop
vertex 0.115629 -0.023184 0.000000
vertex 0.114205 -0.022556 0.000000
vertex 0.114205 -0.022556 -1.000000
endloop
endfacet
facet normal -0.403895 -0.914805 0.000000
outer loop
vertex 0.115629 -0.023184 0.000000
vertex 0.114205 -0.022556 -1.000000
vertex 0.115629 -0.023184 -1.000000
endloop
endfacet
facet normal 0.345627 -0.938372 0.000000
outer loop
vertex 0.134371 -0.023184 0.000000
vertex 0.132902 -0.023725 0.000000
vertex 0.132902 -0.023725 -1.000000
endloop
endfacet
facet normal 0.345627 -0.938372 0.000000
outer loop
vertex 0.134371 -0.023184 0.000000
vertex 0.132902 -0.023725 -1.000000
vertex 0.134371 -0.023184 -1.000000
endloop
endfacet
facet normal -0.345627 -0.938372 0.000000
outer loop
vertex 0.117098 -0.023725 0.000000
vertex 0.115629 -0.023184 0.000000
vertex 0.115629 -0.023184 -1.000000
endloop
endfacet
facet normal -0.345630 -0.938371 0.000000
outer loop
vertex 0.117098 -0.023725 0.000000
vertex 0.115629 -0.023184 -1.000000
vertex 0.117098 -0.023725 -1.000000
endloop
endfacet
facet normal 0.285553 -0.958363 0.000000
outer loop
vertex 0.132902 -0.023725 0.000000
vertex 0.131392 -0.024176 0.000000
vertex 0.131392 -0.024176 -1.000000
endloop
endfacet
facet normal 0.285546 -0.958365 0.000000
outer loop
vertex 0.132902 -0.023725 0.000000
vertex 0.131392 -0.024176 -1.000000
vertex 0.132902 -0.023725 -1.000000
endloop
endfacet
facet normal -0.285552 -0.958363 0.000000
outer loop
vertex 0.118609 -0.024176 0.000000
vertex 0.117098 -0.023725 0.000000
vertex 0.117098 -0.023725 -1.000000
endloop
endfacet
facet normal -0.285552 -0.958363 0.000000
outer loop
vertex 0.118609 -0.024176 0.000000
vertex 0.117098 -0.023725 -1.000000
vertex 0.118609 -0.024176 -1.000000
endloop
endfacet
facet normal 0.223887 -0.974615 0.000000
outer loop
vertex 0.131392 -0.024176 0.000000
vertex 0.129843 -0.024531 0.000000
vertex 0.129843 -0.024531 -1.000000
endloop
endfacet
facet normal 0.223889 -0.974615 0.000000
outer loop
vertex 0.131392 -0.024176 0.000000
vertex 0.129843 -0.024531 -1.000000
vertex 0.131392 -0.024176 -1.000000
endloop
endfacet
facet normal -0.223889 -0.974615 0.000000
outer loop
vertex 0.120157 -0.024531 0.000000
vertex 0.118609 -0.024176 0.000000
vertex 0.118609 -0.024176 -1.000000
endloop
endfacet
facet normal -0.223887 -0.974615 0.000000
outer loop
vertex 0.120157 -0.024531 0.000000
vertex 0.118609 -0.024176 -1.000000
vertex 0.120157 -0.024531 -1.000000
endloop
endfacet
facet normal 0.160911 -0.986969 0.000000
outer loop
vertex 0.129843 -0.024531 0.000000
vertex 0.128259 -0.024789 0.000000
vertex 0.128259 -0.024789 -1.000000
endloop
endfacet
facet normal 0.160912 -0.986969 0.000000
outer loop
vertex 0.129843 -0.024531 0.000000
vertex 0.128259 -0.024789 -1.000000
vertex 0.129843 -0.024531 -1.000000
endloop
endfacet
facet normal -0.160912 -0.986969 0.000000
outer loop
vertex 0.121741 -0.024790 0.000000
vertex 0.120157 -0.024531 0.000000
vertex 0.120157 -0.024531 -1.000000
endloop
endfacet
facet normal -0.160912 -0.986969 0.000000
outer loop
vertex 0.121741 -0.024790 0.000000
vertex 0.120157 -0.024531 -1.000000
vertex 0.121741 -0.024790 -1.000000
endloop
endfacet
facet normal 0.096939 -0.995290 0.000000
outer loop
vertex 0.128259 -0.024789 0.000000
vertex 0.126644 -0.024947 0.000000
vertex 0.126644 -0.024947 -1.000000
endloop
endfacet
facet normal 0.096942 -0.995290 0.000000
outer loop
vertex 0.128259 -0.024789 0.000000
vertex 0.126644 -0.024947 -1.000000
vertex 0.128259 -0.024789 -1.000000
endloop
endfacet
facet normal -0.096939 -0.995290 0.000000
outer loop
vertex 0.123356 -0.024947 0.000000
vertex 0.121741 -0.024790 0.000000
vertex 0.121741 -0.024790 -1.000000
endloop
endfacet
facet normal -0.096940 -0.995290 0.000000
outer loop
vertex 0.123356 -0.024947 0.000000
vertex 0.121741 -0.024790 -1.000000
vertex 0.123356 -0.024947 -1.000000
endloop
endfacet
facet normal -0.032327 -0.999477 0.000000
outer loop
vertex 0.125000 -0.025000 0.000000
vertex 0.123356 -0.024947 0.000000
vertex 0.123356 -0.024947 -1.000000
endloop
endfacet
facet normal -0.032327 -0.999477 0.000000
outer loop
vertex 0.125000 -0.025000 0.000000
vertex 0.123356 -0.024947 -1.000000
vertex 0.125000 -0.025000 -1.000000
endloop
endfacet
facet normal 0.032333 -0.999477 0.000000
outer loop
vertex 0.126644 -0.024947 0.000000
vertex 0.125000 -0.025000 0.000000
vertex 0.125000 -0.025000 -1.000000
endloop
endfacet
facet normal 0.032334 -0.999477 0.000000
outer loop
vertex 0.126644 -0.024947 0.000000
vertex 0.125000 -0.025000 -1.000000
vertex 0.126644 -0.024947 -1.000000
endloop
endfacet
endsolid pipe
