solid symmetry
facet normal -1.000000 0.000000 0.000000
outer loop
vertex 0.000000 0.250000 -0.940000
vertex 0.000000 0.290000 -0.940000
vertex 0.000000 0.290000 -0.990000
endloop
endfacet
facet normal -1.000000 0.000000 0.000000
outer loop
vertex 0.000000 0.250000 -0.940000
vertex 0.000000 0.290000 -0.990000
vertex 0.000000 0.250000 -0.990000
endloop
endfacet
facet normal -1.000000 0.000000 0.000000
outer loop
vertex 0.000000 -0.290000 -0.060000
vertex 0.000000 -0.290000 -0.010000
vertex 0.000000 -0.250000 -0.010000
endloop
endfacet
facet normal -1.000000 0.000000 0.000000
outer loop
vertex 0.000000 -0.290000 -0.060000
vertex 0.000000 -0.250000 -0.010000
vertex 0.000000 -0.250000 -0.060000
endloop
endfacet
facet normal 1.000000 0.000000 0.000000
outer loop
vertex 0.000000 -0.250000 -0.060000
vertex 0.000000 -0.250000 -1.000000
vertex 0.000000 0.250000 -1.000000
endloop
endfacet
facet normal 1.000000 0.000000 0.000000
outer loop
vertex 0.000000 0.250000 -0.990000
vertex 0.000000 0.250000 -0.940000
vertex 0.000000 0.250000 0.000000
endloop
endfacet
facet normal 1.000000 0.000000 0.000000
outer loop
vertex 0.000000 -0.250000 -0.060000
vertex 0.000000 0.250000 -1.000000
vertex 0.000000 0.250000 -0.990000
endloop
endfacet
facet normal 1.000000 0.000000 0.000000
outer loop
vertex 0.000000 0.250000 0.000000
vertex 0.000000 -0.250000 0.000000
vertex 0.000000 -0.250000 -0.010000
endloop
endfacet
facet normal 1.000000 0.000000 0.000000
outer loop
vertex 0.000000 -0.250000 -0.010000
vertex 0.000000 -0.250000 -0.060000
vertex 0.000000 0.250000 -0.990000
endloop
endfacet
facet normal 1.000000 0.000000 0.000000
outer loop
vertex 0.000000 0.250000 -0.990000
vertex 0.000000 0.250000 0.000000
vertex 0.000000 -0.250000 -0.010000
endloop
endfacet
endsolid symmetry
