solid outlet
facet normal 0.000000 1.000000 0.000404
outer loop
vertex 0.015976 0.290000 -0.945770
vertex 0.017127 0.290000 -0.946788
vertex 0.018212 0.290000 -0.947873
endloop
endfacet
facet normal 0.000000 1.000000 0.000000
outer loop
vertex 0.018212 0.290000 -0.947873
vertex 0.019230 0.290000 -0.949024
vertex 0.020176 0.290000 -0.950235
endloop
endfacet
facet normal 0.000000 1.000000 0.000199
outer loop
vertex 0.020176 0.290000 -0.950235
vertex 0.021048 0.290000 -0.951505
vertex 0.021843 0.290000 -0.952829
endloop
endfacet
facet normal 0.000000 1.000000 -0.000193
outer loop
vertex 0.021843 0.290000 -0.952829
vertex 0.022556 0.290000 -0.954205
vertex 0.023184 0.290000 -0.955629
endloop
endfacet
facet normal 0.000000 1.000000 0.000186
outer loop
vertex 0.023184 0.290000 -0.955629
vertex 0.023725 0.290000 -0.957098
vertex 0.024176 0.290000 -0.958609
endloop
endfacet
facet normal 0.000000 1.000000 0.000000
outer loop
vertex 0.024176 0.290000 -0.958609
vertex 0.024531 0.290000 -0.960157
vertex 0.024789 0.290000 -0.961741
endloop
endfacet
facet normal 0.000000 1.000000 0.000021
outer loop
vertex 0.024789 0.290000 -0.961741
vertex 0.024947 0.290000 -0.963356
vertex 0.025000 0.290000 -0.965000
endloop
endfacet
facet normal 0.000000 1.000000 0.000000
outer loop
vertex 0.025000 0.290000 -0.965000
vertex 0.024947 0.290000 -0.966644
vertex 0.024789 0.290000 -0.968259
endloop
endfacet
facet normal 0.000000 1.000000 0.000000
outer loop
vertex 0.024789 0.290000 -0.968259
vertex 0.024531 0.290000 -0.969843
vertex 0.024176 0.290000 -0.971391
endloop
endfacet
facet normal 0.000000 1.000000 -0.000186
outer loop
vertex 0.024176 0.290000 -0.971391
vertex 0.023725 0.290000 -0.972902
vertex 0.023184 0.290000 -0.974371
endloop
endfacet
facet normal 0.000000 1.000000 0.000193
outer loop
vertex 0.023184 0.290000 -0.974371
vertex 0.022556 0.290000 -0.975795
vertex 0.021843 0.290000 -0.977171
endloop
endfacet
facet normal 0.000000 1.000000 -0.000397
outer loop
vertex 0.021843 0.290000 -0.977171
vertex 0.021048 0.290000 -0.978495
vertex 0.020176 0.290000 -0.979765
endloop
endfacet
facet normal 0.000000 1.000000 0.000403
outer loop
vertex 0.020176 0.290000 -0.979765
vertex 0.019230 0.290000 -0.980976
vertex 0.018212 0.290000 -0.982127
endloop
endfacet
facet normal 0.000000 1.000000 0.000000
outer loop
vertex 0.018212 0.290000 -0.982127
vertex 0.017127 0.290000 -0.983212
vertex 0.015976 0.290000 -0.984230
endloop
endfacet
facet normal 0.000000 1.000000 0.000000
outer loop
vertex 0.015976 0.290000 -0.984230
vertex 0.014765 0.290000 -0.985176
vertex 0.013495 0.290000 -0.986048
endloop
endfacet
facet normal -0.000160 1.000000 0.000785
outer loop
vertex 0.013495 0.290000 -0.986048
vertex 0.012171 0.290000 -0.986843
vertex 0.010795 0.290000 -0.987556
endloop
endfacet
facet normal 0.000000 1.000000 0.000000
outer loop
vertex 0.010795 0.290000 -0.987556
vertex 0.009371 0.290000 -0.988184
vertex 0.007902 0.290000 -0.988725
endloop
endfacet
facet normal 0.000000 1.000000 -0.000364
outer loop
vertex 0.007902 0.290000 -0.988725
vertex 0.006392 0.290000 -0.989176
vertex 0.004843 0.290000 -0.989531
endloop
endfacet
facet normal 0.000000 1.000000 0.000000
outer loop
vertex 0.004843 0.290000 -0.989531
vertex 0.003259 0.290000 -0.989789
vertex 0.001644 0.290000 -0.989947
endloop
endfacet
facet normal 0.000000 1.000000 0.000000
outer loop
vertex 0.001644 0.290000 -0.989947
vertex 0.000000 0.290000 -0.990000
vertex 0.000000 0.290000 -0.940000
endloop
endfacet
facet normal 0.000000 1.000000 0.000337
outer loop
vertex 0.000000 0.290000 -0.940000
vertex 0.001644 0.290000 -0.940053
vertex 0.003259 0.290000 -0.940211
endloop
endfacet
facet normal 0.000000 1.000000 0.000356
outer loop
vertex 0.003259 0.290000 -0.940211
vertex 0.004843 0.290000 -0.940469
vertex 0.006392 0.290000 -0.940825
endloop
endfacet
facet normal 0.000000 1.000000 0.000000
outer loop
vertex 0.006392 0.290000 -0.940825
vertex 0.007902 0.290000 -0.941275
vertex 0.009371 0.290000 -0.941816
endloop
endfacet
facet normal 0.000000 1.000000 -0.000387
outer loop
vertex 0.009371 0.290000 -0.941816
vertex 0.010795 0.290000 -0.942444
vertex 0.012171 0.290000 -0.943157
endloop
endfacet
facet normal 0.000000 1.000000 0.000000
outer loop
vertex 0.012171 0.290000 -0.943157
vertex 0.013495 0.290000 -0.943952
vertex 0.014765 0.290000 -0.944824
endloop
endfacet
facet normal 0.000000 1.000000 -0.000269
outer loop
vertex 0.014765 0.290000 -0.944824
vertex 0.015976 0.290000 -0.945770
vertex 0.018212 0.290000 -0.947873
endloop
endfacet
facet normal 0.000000 1.000000 0.000050
outer loop
vertex 0.018212 0.290000 -0.947873
vertex 0.020176 0.290000 -0.950235
vertex 0.021843 0.290000 -0.952829
endloop
endfacet
facet normal 0.000000 1.000000 0.000000
outer loop
vertex 0.021843 0.290000 -0.952829
vertex 0.023184 0.290000 -0.955629
vertex 0.024176 0.290000 -0.958609
endloop
endfacet
facet normal 0.000000 1.000000 0.000000
outer loop
vertex 0.024176 0.290000 -0.958609
vertex 0.024789 0.290000 -0.961741
vertex 0.025000 0.290000 -0.965000
endloop
endfacet
facet normal 0.000000 1.000000 0.000000
outer loop
vertex 0.025000 0.290000 -0.965000
vertex 0.024789 0.290000 -0.968259
vertex 0.024176 0.290000 -0.971391
endloop
endfacet
facet normal 0.000000 1.000000 0.000000
outer loop
vertex 0.024176 0.290000 -0.971391
vertex 0.023184 0.290000 -0.974371
vertex 0.021843 0.290000 -0.977171
endloop
endfacet
facet normal 0.000000 1.000000 0.000000
outer loop
vertex 0.021843 0.290000 -0.977171
vertex 0.020176 0.290000 -0.979765
vertex 0.018212 0.290000 -0.982127
endloop
endfacet
facet normal 0.000000 1.000000 -0.000101
outer loop
vertex 0.018212 0.290000 -0.982127
vertex 0.015976 0.290000 -0.984230
vertex 0.013495 0.290000 -0.986048
endloop
endfacet
facet normal 0.000029 1.000000 -0.000097
outer loop
vertex 0.013495 0.290000 -0.986048
vertex 0.010795 0.290000 -0.987556
vertex 0.007902 0.290000 -0.988725
endloop
endfacet
facet normal 0.000000 1.000000 0.000000
outer loop
vertex 0.007902 0.290000 -0.988725
vertex 0.004843 0.290000 -0.989531
vertex 0.001644 0.290000 -0.989947
endloop
endfacet
facet normal -0.000000 1.000000 -0.000001
outer loop
vertex 0.001644 0.290000 -0.989947
vertex 0.000000 0.290000 -0.940000
vertex 0.003259 0.290000 -0.940211
endloop
endfacet
facet normal 0.000000 1.000000 0.000000
outer loop
vertex 0.003259 0.290000 -0.940211
vertex 0.006392 0.290000 -0.940825
vertex 0.009371 0.290000 -0.941816
endloop
endfacet
facet normal 0.000000 1.000000 0.000000
outer loop
vertex 0.009371 0.290000 -0.941816
vertex 0.012171 0.290000 -0.943157
vertex 0.014765 0.290000 -0.944824
endloop
endfacet
facet normal 0.000000 1.000000 -0.000039
outer loop
vertex 0.014765 0.290000 -0.944824
vertex 0.018212 0.290000 -0.947873
vertex 0.021843 0.290000 -0.952829
endloop
endfacet
facet normal 0.000000 1.000000 -0.000003
outer loop
vertex 0.021843 0.290000 -0.952829
vertex 0.024176 0.290000 -0.958609
vertex 0.025000 0.290000 -0.965000
endloop
endfacet
facet normal 0.000000 1.000000 0.000000
outer loop
vertex 0.025000 0.290000 -0.965000
vertex 0.024176 0.290000 -0.971391
vertex 0.021843 0.290000 -0.977171
endloop
endfacet
facet normal 0.000000 1.000000 0.000000
outer loop
vertex 0.021843 0.290000 -0.977171
vertex 0.018212 0.290000 -0.982127
vertex 0.013495 0.290000 -0.986048
endloop
endfacet
facet normal 0.000004 1.000000 0.000023
outer loop
vertex 0.013495 0.290000 -0.986048
vertex 0.007902 0.290000 -0.988725
vertex 0.001644 0.290000 -0.989947
endloop
endfacet
facet normal -0.000000 1.000000 -0.000001
outer loop
vertex 0.001644 0.290000 -0.989947
vertex 0.003259 0.290000 -0.940211
vertex 0.009371 0.290000 -0.941816
endloop
endfacet
facet normal 0.000000 1.000000 0.000021
outer loop
vertex 0.009371 0.290000 -0.941816
vertex 0.014765 0.290000 -0.944824
vertex 0.021843 0.290000 -0.952829
endloop
endfacet
facet normal 0.000000 1.000000 0.000000
outer loop
vertex 0.021843 0.290000 -0.952829
vertex 0.025000 0.290000 -0.965000
vertex 0.021843 0.290000 -0.977171
endloop
endfacet
facet normal -0.000004 1.000000 0.000006
outer loop
vertex 0.021843 0.290000 -0.977171
vertex 0.013495 0.290000 -0.986048
vertex 0.001644 0.290000 -0.989947
endloop
endfacet
facet normal -0.000000 1.000000 -0.000001
outer loop
vertex 0.001644 0.290000 -0.989947
vertex 0.009371 0.290000 -0.941816
vertex 0.021843 0.290000 -0.952829
endloop
endfacet
facet normal -0.000001 1.000000 0.000000
outer loop
vertex 0.021843 0.290000 -0.952829
vertex 0.021843 0.290000 -0.977171
vertex 0.001644 0.290000 -0.989947
endloop
endfacet
endsolid outlet
